<svg width="57" height="20" viewBox="0 0 57 20" fill="none" xmlns="http://www.w3.org/2000/svg">
<g clip-path="url(#clip0_234_3486)">
<g clip-path="url(#clip1_234_3486)">
<mask id="mask0_234_3486" style="mask-type:alpha" maskUnits="userSpaceOnUse" x="7" y="10" width="10" height="6">
<rect x="7.27734" y="10.923" width="9.45" height="4.725" fill="#D9D9D9"/>
</mask>
<g mask="url(#mask0_234_3486)">
<path d="M7.27743 10.9228C9.88691 10.9228 12.0022 8.80746 12.0024 6.198C12.0024 8.80744 14.1179 10.9228 16.7273 10.9229C14.1178 10.9229 12.0023 13.0384 12.0023 15.6479C12.0023 13.0384 9.88689 10.923 7.27734 10.923L7.27743 10.9228Z" fill="url(#paint0_linear_234_3486)"/>
</g>
<path d="M11.9958 1.74237C11.9956 1.74445 11.6959 4.20067 9.25393 6.64263C8.04637 7.85019 6.70692 8.66193 5.66113 9.1743C7.03646 8.88737 8.82079 8.71401 10.7706 8.71401C15.1198 8.71401 18.6456 9.57591 18.6456 10.639C18.6456 11.6548 15.427 12.4867 11.3468 12.5588C11.5612 12.5614 11.7776 12.5629 11.9957 12.5629C17.3114 12.5629 21.6207 11.7794 21.6207 10.8129C21.6206 10.4259 20.8938 10.1861 19.7596 9.77852C18.5807 9.35489 16.6376 8.54264 14.7376 6.64263C12.2979 4.20295 11.9966 1.74903 11.9958 1.74237Z" fill="url(#paint1_linear_234_3486)"/>
<path d="M12.0029 20.2572C12.0031 20.2551 12.3028 17.7989 14.7447 15.3569C15.9523 14.1494 17.2918 13.3377 18.3375 12.8253C16.9622 13.1122 15.1779 13.2856 13.228 13.2856C8.87884 13.2856 5.3531 12.4237 5.35303 11.3605C5.35306 10.3448 8.57166 9.51287 12.6519 9.44075C12.4375 9.43816 12.2211 9.43665 12.003 9.43665C6.68727 9.43665 2.37793 10.2202 2.37793 11.1867C2.37805 11.5737 3.10386 11.8162 4.2391 12.2211C5.44726 12.6519 7.3611 13.4569 9.26111 15.3569C11.7008 17.7966 12.0021 20.2505 12.0029 20.2572Z" fill="url(#paint2_linear_234_3486)"/>
<mask id="mask1_234_3486" style="mask-type:alpha" maskUnits="userSpaceOnUse" x="7" y="6" width="10" height="5">
<rect x="7.27734" y="6.19806" width="9.45" height="4.725" fill="#D9D9D9"/>
</mask>
<g mask="url(#mask1_234_3486)">
<path d="M7.27743 10.9229C9.88691 10.9229 12.0022 8.80752 12.0024 6.19806C12.0024 8.8075 14.1179 10.9229 16.7273 10.923C14.1178 10.923 12.0023 13.0384 12.0023 15.648C12.0023 13.0384 9.88689 10.9231 7.27734 10.9231L7.27743 10.9229Z" fill="url(#paint3_linear_234_3486)"/>
</g>
</g>
<path d="M27.3599 9.08559C27.3569 11.8645 27.2512 14.6011 27.0426 17.2954C27.0079 17.4346 26.9578 17.5273 26.8998 17.5853L26.8957 17.5892L26.8921 17.5935C26.739 17.7754 26.5669 17.8577 26.3709 17.8577H25.8242C25.8782 17.5097 25.928 16.8954 25.9742 16.0231C26.0288 14.9927 26.0793 13.5912 26.1257 11.8195V11.8189C26.1464 10.8148 26.1568 9.90356 26.1579 9.08559H27.3599Z" fill="white"/>
<path d="M29.4448 5.35767V6.55943H31.2925V7.98193H29.4448V17.8577H27.7689V7.98193H25.9213V6.55943H27.7689V5.35767H29.4448Z" fill="white"/>
<path d="M31.0477 9.08559C31.0523 11.0554 31.1583 13.8353 31.3663 17.4239L31.3673 17.441L31.3696 17.4484C31.3703 17.4534 31.3711 17.4609 31.3722 17.4714C31.3744 17.4942 31.3775 17.5273 31.3809 17.5713C31.3862 17.6411 31.3925 17.7366 31.4005 17.8577H30.8592C30.5995 17.8577 30.3948 17.7416 30.2363 17.4885C30.1818 17.3852 30.1479 17.2239 30.1479 16.9911V16.9862L30.1477 16.9814C29.9495 14.3415 29.8489 11.7096 29.8457 9.08559H31.0477Z" fill="white"/>
<path fill-rule="evenodd" clip-rule="evenodd" d="M38.642 5.35767V6.88568C38.6234 6.93091 38.5719 7.04074 38.4801 7.22444C38.3773 7.43006 38.2293 7.71827 38.0368 8.08974L37.7622 8.54245C37.5801 8.80991 37.4071 9.03867 37.243 9.22917L37.2114 9.26596V9.45348H38.7483V11.0083C38.7481 11.0098 38.7477 11.0122 38.747 11.016C38.7453 11.0257 38.7425 11.0398 38.7383 11.0589C38.7302 11.0969 38.7177 11.1509 38.7008 11.2214C38.6671 11.3616 38.6165 11.5643 38.5488 11.8297C38.1303 13.3188 37.6971 14.5065 37.2499 15.3954L37.2195 15.4557L37.2512 15.5154C37.6599 16.2874 38.1221 17.068 38.6372 17.8577H37.4239C37.006 17.8577 36.6776 17.6819 36.4283 17.3181C36.4011 17.2773 36.379 17.245 36.3624 17.2223C36.3543 17.2113 36.3458 17.2003 36.3379 17.1911C36.3342 17.1869 36.3279 17.1799 36.32 17.173C36.3162 17.1696 36.309 17.1634 36.299 17.1574C36.2925 17.1535 36.2668 17.1382 36.2303 17.1382H36.1514L36.1146 17.2082C36.0715 17.2901 35.9495 17.4348 35.7298 17.6497C35.5348 17.7893 35.3268 17.8577 35.1021 17.8577H33.7394C34.133 17.3042 34.5023 16.7016 34.8477 16.0502L34.8479 16.0504C34.9799 15.8195 35.1036 15.5884 35.2191 15.3573L35.249 15.2973L35.2179 15.2377C34.8973 14.6293 34.5986 14.0263 34.3217 13.429L34.2864 13.3531H34.0731L34.0641 13.4744C33.9934 14.4533 33.9065 15.292 33.8035 15.9909V15.9924C33.7602 16.3094 33.7164 16.5672 33.6725 16.7668C33.6279 16.9693 33.5852 17.1025 33.547 17.1766L33.546 17.1781L33.5453 17.1799C33.4332 17.4142 33.2932 17.582 33.1288 17.6916C32.9651 17.8008 32.769 17.8577 32.5351 17.8577H31.7089C31.8206 17.4459 31.9317 16.7281 32.0438 15.7145C32.1478 14.811 32.2432 13.5104 32.3305 11.8146L32.3307 11.8136C32.4125 9.90487 32.4533 8.28144 32.4533 6.94367V6.80469H31.7993V5.35767H38.642ZM34.2519 6.80469V7.71215C34.2519 9.13878 34.23 10.4452 34.1865 11.6314L34.1817 11.7671H35.4588L36.029 13.0465L36.0638 13.1242H36.1486C36.1825 13.1242 36.2074 13.1114 36.2193 13.104C36.2321 13.0961 36.2411 13.0875 36.2462 13.0823C36.2562 13.0719 36.2634 13.0615 36.2674 13.0555C36.2759 13.0424 36.2839 13.0272 36.2909 13.013C36.3054 12.9835 36.3237 12.9419 36.345 12.8902C36.3882 12.7858 36.4482 12.6307 36.5246 12.426C36.6734 12.0238 36.8163 11.5699 36.9533 11.0655L36.9983 10.9005H35.1675V9.36713C35.4664 8.9843 35.7444 8.56596 36.0009 8.11171L36.0012 8.11095C36.215 7.72709 36.4072 7.35385 36.5775 6.99119L36.6651 6.80469H34.2519Z" fill="white"/>
<path fill-rule="evenodd" clip-rule="evenodd" d="M52.8016 5.57022V15.8792C52.8016 16.4342 52.5902 16.8791 52.1634 17.2246L52.1622 17.2256C51.8669 17.4708 51.5024 17.5961 51.0603 17.5961H41.1682V7.27886C41.1682 6.68962 41.4087 6.22136 41.8991 5.86377C42.1729 5.67009 42.5101 5.57022 42.9177 5.57022H52.8016ZM44.2666 7.02542C44.0066 7.02542 43.7883 7.14833 43.6157 7.37032L43.6121 7.37492C43.5074 7.52276 43.4491 7.67947 43.4491 7.84295V9.09377H49.7849V10.549H43.4491V12.6173H49.7849V14.0725H43.4491V16.1409H49.695C49.9547 16.1409 50.1751 16.0184 50.3529 15.7978L50.3564 15.7932L50.3598 15.7883C50.4584 15.6404 50.5125 15.4848 50.5125 15.3233V7.02542H44.2666Z" fill="white"/>
</g>
<defs>
<linearGradient id="paint0_linear_234_3486" x1="10.1603" y1="7.10787" x2="12.087" y2="13.4815" gradientUnits="userSpaceOnUse">
<stop stop-color="#D7FFFA"/>
<stop offset="0.4" stop-color="white"/>
<stop offset="1" stop-color="#796BFF"/>
</linearGradient>
<linearGradient id="paint1_linear_234_3486" x1="18.0411" y1="14.9167" x2="9.87446" y2="4.37505" gradientUnits="userSpaceOnUse">
<stop offset="0.0317757" stop-color="#46FFE9"/>
<stop offset="0.23459" stop-color="#D7FFFA"/>
<stop offset="1" stop-color="#796BFF"/>
</linearGradient>
<linearGradient id="paint2_linear_234_3486" x1="13.6664" y1="9.8334" x2="12.1248" y2="17.8751" gradientUnits="userSpaceOnUse">
<stop offset="0.0317757" stop-color="#46FFE9"/>
<stop offset="0.511254" stop-color="#D7FFFA"/>
<stop offset="1" stop-color="#796BFF"/>
</linearGradient>
<linearGradient id="paint3_linear_234_3486" x1="10.1603" y1="7.10793" x2="12.087" y2="13.4815" gradientUnits="userSpaceOnUse">
<stop stop-color="#D7FFFA"/>
<stop offset="0.4" stop-color="white"/>
<stop offset="1" stop-color="#796BFF"/>
</linearGradient>
<clipPath id="clip0_234_3486">
<rect width="57" height="20" fill="white"/>
</clipPath>
<clipPath id="clip1_234_3486">
<rect width="20" height="20" fill="white" transform="translate(2 1)"/>
</clipPath>
</defs>
</svg>
