<svg width="20" height="19" viewBox="0 0 20 19" fill="none" xmlns="http://www.w3.org/2000/svg">
<mask id="mask0_234_3488" style="mask-type:alpha" maskUnits="userSpaceOnUse" x="5" y="9" width="10" height="6">
<rect x="5.27734" y="9.92297" width="9.45" height="4.725" fill="#D9D9D9"/>
</mask>
<g mask="url(#mask0_234_3488)">
<path d="M5.27743 9.92284C7.88691 9.92283 10.0022 7.80746 10.0024 5.198C10.0024 7.80744 12.1179 9.92284 14.7273 9.9229C12.1178 9.92292 10.0023 12.0384 10.0023 14.6479C10.0023 12.0384 7.88689 9.923 5.27734 9.92301L5.27743 9.92284Z" fill="url(#paint0_linear_234_3488)"/>
</g>
<path d="M9.99581 0.742371C9.99555 0.744452 9.69587 3.20067 7.25393 5.64263C6.04637 6.85019 4.70692 7.66193 3.66113 8.1743C5.03646 7.88737 6.82079 7.71401 8.77063 7.71401C13.1198 7.71401 16.6456 8.57591 16.6456 9.63905C16.6456 10.6548 13.427 11.4867 9.34676 11.5588C9.5612 11.5614 9.77762 11.5629 9.99568 11.5629C15.3114 11.5629 19.6207 10.7794 19.6207 9.81288C19.6206 9.42587 18.8938 9.18612 17.7596 8.77852C16.5807 8.35489 14.6376 7.54264 12.7376 5.64263C10.2979 3.20295 9.99662 0.749029 9.99581 0.742371Z" fill="url(#paint1_linear_234_3488)"/>
<path d="M10.0029 19.2572C10.0031 19.2551 10.3028 16.7989 12.7447 14.3569C13.9523 13.1494 15.2918 12.3377 16.3375 11.8253C14.9622 12.1122 13.1779 12.2856 11.228 12.2856C6.87884 12.2856 3.3531 11.4237 3.35303 10.3605C3.35306 9.34475 6.57166 8.51287 10.6519 8.44075C10.4375 8.43816 10.2211 8.43665 10.003 8.43665C4.68727 8.43665 0.377934 9.2202 0.37793 10.1867C0.378048 10.5737 1.10386 10.8162 2.2391 11.2211C3.44726 11.6519 5.3611 12.4569 7.26111 14.3569C9.70078 16.7966 10.0021 19.2505 10.0029 19.2572Z" fill="url(#paint2_linear_234_3488)"/>
<mask id="mask1_234_3488" style="mask-type:alpha" maskUnits="userSpaceOnUse" x="5" y="5" width="10" height="5">
<rect x="5.27734" y="5.19806" width="9.45" height="4.725" fill="#D9D9D9"/>
</mask>
<g mask="url(#mask1_234_3488)">
<path d="M5.27743 9.9229C7.88691 9.92289 10.0022 7.80752 10.0024 5.19806C10.0024 7.8075 12.1179 9.9229 14.7273 9.92296C12.1178 9.92299 10.0023 12.0384 10.0023 14.648C10.0023 12.0384 7.88689 9.92306 5.27734 9.92307L5.27743 9.9229Z" fill="url(#paint3_linear_234_3488)"/>
</g>
<defs>
<linearGradient id="paint0_linear_234_3488" x1="8.16031" y1="6.10787" x2="10.087" y2="12.4815" gradientUnits="userSpaceOnUse">
<stop stop-color="#D7FFFA"/>
<stop offset="0.4" stop-color="white"/>
<stop offset="1" stop-color="#796BFF"/>
</linearGradient>
<linearGradient id="paint1_linear_234_3488" x1="16.0411" y1="13.9167" x2="7.87446" y2="3.37505" gradientUnits="userSpaceOnUse">
<stop offset="0.0317757" stop-color="#46FFE9"/>
<stop offset="0.23459" stop-color="#D7FFFA"/>
<stop offset="1" stop-color="#796BFF"/>
</linearGradient>
<linearGradient id="paint2_linear_234_3488" x1="11.6664" y1="8.8334" x2="10.1248" y2="16.8751" gradientUnits="userSpaceOnUse">
<stop offset="0.0317757" stop-color="#46FFE9"/>
<stop offset="0.511254" stop-color="#D7FFFA"/>
<stop offset="1" stop-color="#796BFF"/>
</linearGradient>
<linearGradient id="paint3_linear_234_3488" x1="8.16031" y1="6.10793" x2="10.087" y2="12.4815" gradientUnits="userSpaceOnUse">
<stop stop-color="#D7FFFA"/>
<stop offset="0.4" stop-color="white"/>
<stop offset="1" stop-color="#796BFF"/>
</linearGradient>
</defs>
</svg>
