<?xml version="1.0" standalone="no"?>
<!DOCTYPE svg PUBLIC "-//W3C//DTD SVG 1.1//EN" "http://www.w3.org/Graphics/SVG/1.1/DTD/svg11.dtd" >
<svg xmlns="http://www.w3.org/2000/svg">
  <metadata>Created by iconfont</metadata>
  <defs>
  <font id="iconfont" horiz-adv-x="1024">
    <font-face
      font-family="iconfont"
      font-weight="400"
      font-stretch="normal"
      units-per-em="1024"
      ascent="896"
      descent="-128"
    />
      <missing-glyph />
      
      <glyph glyph-name="duration" unicode="&#59362;" d="M271.808 768a42.688 42.688 0 0 1-42.624-42.688v-130.24h-58.496A42.688 42.688 0 0 1 128 552.32v-511.872c0-23.552 19.072-42.624 42.688-42.624h512a42.688 42.688 0 0 1 42.624 42.624v60.608h128.064a42.688 42.688 0 0 1 42.688 42.688V725.312A42.688 42.688 0 0 1 853.376 768H271.808z m453.504-581.568V552.384a42.688 42.688 0 0 1-42.624 42.688H314.496V682.688h496.256v-496.256h-85.44z m-512-103.232V509.696H640V83.2H213.312zM384 197.44a42.688 42.688 0 1 1 85.312 0v56.32h56.512a42.688 42.688 0 0 1 0 85.376h-56.512v56.32a42.688 42.688 0 1 1-85.312 0v-56.32h-56.192a42.688 42.688 0 0 1 0-85.312H384v-56.384z"  horiz-adv-x="1024" />
      
      <glyph glyph-name="Warning" unicode="&#59363;" d="M512 0a384 384 0 1 1 0 768 384 384 0 0 1 0-768z m-42.666667 298.666667V597.333333h85.333334v-298.666666h-85.333334z m0-128v85.333333h85.333334v-85.333333h-85.333334z"  horiz-adv-x="1024" />
      
      <glyph glyph-name="HistoryOutlined" unicode="&#59359;" d="M211.456 685.696A425.472 425.472 0 0 0 513.152 810.666667a425.386667 425.386667 0 0 0 298.666667-121.984V725.333333a42.666667 42.666667 0 1 0 85.333333 0v-145.066666a42.666667 42.666667 0 0 0-42.666667-42.666667h-143.488a42.666667 42.666667 0 1 0 0 85.333333h46.122667a43.008 43.008 0 0 0-2.56 2.432A340.138667 340.138667 0 0 1 513.109333 725.333333C418.901333 725.333333 333.653333 687.189333 271.786667 625.365333A340.138667 340.138667 0 0 1 171.818667 384c0-94.293333 38.186667-179.541333 99.968-241.365333A340.138667 340.138667 0 0 1 513.152 42.666667c94.293333 0 179.541333 38.144 241.365333 99.968 39.253333 39.253333 91.605333 109.397333 97.706667 207.274666a42.666667 42.666667 0 0 0 85.205333-5.290666c-7.936-126.592-75.434667-215.168-122.581333-262.314667A425.472 425.472 0 0 0 513.194667-42.666667a425.472 425.472 0 0 0-301.738667 124.970667A425.472 425.472 0 0 0 86.485333 384a425.472 425.472 0 0 0 125.013334 301.696zM538.026667 538.154667a42.666667 42.666667 0 0 1-85.333334 0v-218.026667a42.666667 42.666667 0 0 1 42.666667-42.666667h163.328a42.666667 42.666667 0 1 1 0 85.333334H538.026667v175.36z"  horiz-adv-x="1024" />
      
      <glyph glyph-name="UploadingOutlined" unicode="&#59360;" d="M170.666667 213.333333a42.666667 42.666667 0 0 0 42.666666-42.666666v-85.333334h597.333334v85.333334a42.666667 42.666667 0 1 0 85.333333 0v-128a42.666667 42.666667 0 0 0-42.666667-42.666667H170.666667a42.666667 42.666667 0 0 0-42.666667 42.666667v128a42.666667 42.666667 0 0 0 42.666667 42.666666zM675.370667 501.632a42.666667 42.666667 0 0 1 60.330666 60.330667l-193.536 193.536a42.666667 42.666667 0 0 1-60.330666 0L288.298667 561.962667a42.666667 42.666667 0 0 1 60.373333-60.330667l120.618667 120.661333V256a42.666667 42.666667 0 1 1 85.333333 0V622.336l120.746667-120.704z"  horiz-adv-x="1024" />
      
      <glyph glyph-name="MarbleFilled" unicode="&#59361;" d="M64.554667 735.786667l126.762666-627.882667c5.461333-27.008 35.626667-32.768 53.802667-12.202667l54.784 55.68c49.536 50.346667 122.922667 45.44 168.021333-8.96l172.8-177.450666c12.629333-13.397333 36.565333-8.106667 45.141334 8.149333l270.293333 483.541333c12.16 21.76-6.229333 42.197333-30.293333 35.754667l-434.304-154.453333c-40.533333-17.237333-87.125333-36.608-139.733334 23.338666L112.213333 757.418667c-17.28 22.528-53.077333 6.357333-47.658666-21.632z"  horiz-adv-x="1024" />
      
      <glyph glyph-name="CPU" unicode="&#59354;" d="M809.642667 766.933333a128 128 0 0 0 129.024-128V213.333333a128 128 0 0 0-121.429334-127.829333L810.666667 85.333333a85.333333 85.333333 0 0 0-85.333334-85.333333h-85.333333a85.333333 85.333333 0 0 0-85.333333 85.333333h-85.333334a85.333333 85.333333 0 0 0-85.333333-85.333333H298.666667a85.333333 85.333333 0 0 0-85.333334 85.333333l-6.570666 0.170667A128 128 0 0 0 85.333333 213.333333V548.010667c0 27.733333 9.045333 54.698667 25.6 76.714666l7.509334 9.173334 78.506666 86.784a128.042667 128.042667 0 0 0 87.168 41.813333l6.698667 0.256 518.826667 4.181333zM291.498667 677.418667a42.666667 42.666667 0 0 1-31.232-14.08L181.717333 576.682667A42.709333 42.709333 0 0 1 170.666667 548.010667V213.333333a42.666667 42.666667 0 0 1 42.666666-42.666666h85.333334v-85.333334h85.333333v85.333334h256v-85.333334h85.333333v85.333334h85.333334a42.666667 42.666667 0 0 1 42.666666 42.666666V638.933333a42.666667 42.666667 0 0 1-43.008 42.666667l-518.826666-4.181333zM640 554.666667a128 128 0 1 0 0-256 128 128 0 0 0 0 256z m-213.333333-149.333334a42.666667 42.666667 0 0 0 0-85.333333H298.666667a42.666667 42.666667 0 1 0 0 85.333333h128z m213.333333 64a42.666667 42.666667 0 1 1 0-85.333333 42.666667 42.666667 0 0 1 0 85.333333zM362.666667 533.333333a42.666667 42.666667 0 0 0 0-85.333333H298.666667a42.666667 42.666667 0 1 0 0 85.333333h64z"  horiz-adv-x="1024" />
      
      <glyph glyph-name="a-videomemory" unicode="&#59355;" d="M688.853333 810.666667a42.666667 42.666667 0 0 0 42.666667-42.666667v-95.146667a127.914667 127.914667 0 0 0 77.226667-96.853333H896a42.666667 42.666667 0 1 0 0-85.333333h-85.333333V426.666667h85.333333a42.666667 42.666667 0 1 0 0-85.333334h-85.333333v-85.333333h85.333333a42.666667 42.666667 0 1 0 0-85.333333h-92.586667a128.256 128.256 0 0 0-71.893333-75.52V0a42.666667 42.666667 0 1 0-85.333333 0v85.333333h-85.333334v-85.333333a42.666667 42.666667 0 1 0-85.333333 0v85.333333h-64v-85.333333a42.666667 42.666667 0 1 0-85.333333 0v86.314667A128 128 0 0 0 220.586667 170.666667H128a42.666667 42.666667 0 1 0 0 85.333333h85.333333v85.333333H128a42.666667 42.666667 0 1 0 0 85.333334h85.333333V490.666667H128a42.666667 42.666667 0 0 0 0 85.333333h87.125333a128 128 0 0 0 111.061334 105.770667V768a42.666667 42.666667 0 0 0 85.333333 0v-85.333333h64V768a42.666667 42.666667 0 1 0 85.333333 0v-85.333333h85.333334V768a42.666667 42.666667 0 0 0 42.666666 42.666667zM341.333333 597.333333a42.666667 42.666667 0 0 1-42.666666-42.666666v-341.333334a42.666667 42.666667 0 0 1 42.666666-42.666666h341.333334a42.666667 42.666667 0 0 1 42.666666 42.666666V554.666667a42.666667 42.666667 0 0 1-42.666666 42.666666H341.333333z m213.333334-85.333333a85.333333 85.333333 0 0 0 85.333333-85.333333v-85.333334a85.333333 85.333333 0 0 0-76.629333-84.906666L554.666667 256h-85.333334l-8.704 0.426667a85.333333 85.333333 0 0 0-76.16 76.202666L384 341.333333v85.333334a85.333333 85.333333 0 0 0 85.333333 85.333333h85.333334z m-85.333334-170.666667h85.333334v85.333334h-85.333334v-85.333334z"  horiz-adv-x="1024" />
      
      <glyph glyph-name="start" unicode="&#59356;" d="M512 768a384.042667 384.042667 0 0 0 0-768 384.042667 384.042667 0 0 0 0 768z m0-65.109333A318.890667 318.890667 0 1 1 830.848 384 318.890667 318.890667 0 0 1 512 702.890667zM467.328 566.613333c2.730667-0.426667 5.333333-1.834667 7.424-4.053333l154.026667-164.309333a18.773333 18.773333 0 0 0 3.84-6.4 23.338667 23.338667 0 0 0 0-15.914667 18.986667 18.986667 0 0 0-3.84-6.4l-154.069334-164.266667a13.013333 13.013333 0 0 0-7.381333-4.053333 11.562667 11.562667 0 0 0-7.893333 1.621333 16.469333 16.469333 0 0 0-6.058667 6.869334 22.869333 22.869333 0 0 0-2.261333 9.941333v328.533333c0 3.498667 0.810667 6.954667 2.261333 9.941334a16.384 16.384 0 0 0 6.058667 6.869333 11.562667 11.562667 0 0 0 7.893333 1.621333z"  horiz-adv-x="1024" />
      
      <glyph glyph-name="GPU" unicode="&#59357;" d="M149.333333 810.666667a42.666667 42.666667 0 0 0 42.666667-42.666667H768a170.666667 170.666667 0 0 0 170.666667-170.666667v-266.026666a170.496 170.496 0 0 0-170.666667-170.666667V128a128 128 0 0 0-128-128H384a128 128 0 0 0-128 128v32.64H192V0a42.666667 42.666667 0 0 0-85.333333 0V768a42.666667 42.666667 0 0 0 42.666666 42.666667z m42.666667-564.693334H341.333333V128a42.666667 42.666667 0 0 1 42.666667-42.666667h21.333333v128a42.666667 42.666667 0 1 0 85.333334 0v-128h42.666666v128a42.666667 42.666667 0 1 0 85.333334 0v-128h21.333333a42.666667 42.666667 0 0 1 42.666667 42.666667v117.973333h85.333333a85.632 85.632 0 0 1 33.194667 6.698667A85.632 85.632 0 0 1 853.333333 331.306667V597.333333a85.333333 85.333333 0 0 1-85.333333 85.333334H192v-436.693334zM640 597.333333a128 128 0 1 0 0-256 128 128 0 0 0 0 256z m-213.333333-149.333333a42.666667 42.666667 0 1 0 0-85.333333H298.666667a42.666667 42.666667 0 1 0 0 85.333333h128zM640 512a42.666667 42.666667 0 1 1 0-85.333333 42.666667 42.666667 0 0 1 0 85.333333z m-213.333333 64a42.666667 42.666667 0 1 0 0-85.333333H298.666667a42.666667 42.666667 0 0 0 0 85.333333h128z"  horiz-adv-x="1024" />
      
      <glyph glyph-name="stop" unicode="&#59358;" d="M512 768a384 384 0 1 1 0.085333-768.085333A384 384 0 0 1 512 768z m0-702.848a318.890667 318.890667 0 0 0 0 637.696 318.890667 318.890667 0 0 0 0-637.696z m91.050667 437.333333H420.949333a27.434667 27.434667 0 0 1-27.434666-27.434666v-182.101334a27.434667 27.434667 0 0 1 27.434666-27.434666h182.101334a27.434667 27.434667 0 0 1 27.434666 27.434666V475.050667a27.434667 27.434667 0 0 1-27.434666 27.434666z"  horiz-adv-x="1024" />
      
      <glyph glyph-name="a-Uploadfile" unicode="&#59351;" d="M637.013333 810.666667a42.666667 42.666667 0 0 0 29.44-11.733334l190.677334-181.333333a42.666667 42.666667 0 0 0 13.269333-30.933333V426.666667a42.666667 42.666667 0 0 0-85.333333 0V524.074667h-172.544a42.666667 42.666667 0 0 0-42.666667 42.666666V725.333333H256v-682.666666h426.666667a42.666667 42.666667 0 1 0 0-85.333334H213.333333a42.666667 42.666667 0 0 0-42.666666 42.666667V768a42.666667 42.666667 0 0 0 42.666666 42.666667h423.68z m179.157334-486.570667a31.829333 31.829333 0 0 0 17.109333-8.874667l89.514667-89.514666a32 32 0 0 0-45.226667-45.226667l-34.901333 34.858667v-174.634667a32 32 0 0 0-64.042667-0.042667v174.634667l-34.816-34.816a32 32 0 1 0-45.226667 45.226667l89.429334 89.514666a32.042667 32.042667 0 0 0 8.021333 5.674667c0.768 0.426667 1.493333 0.896 2.261333 1.237333 1.365333 0.554667 2.773333 0.896 4.224 1.28 0.597333 0.170667 1.194667 0.426667 1.834667 0.554667 0.170667 0 0.384 0 0.554667 0.085333a31.104 31.104 0 0 0 2.474666 0.341334l3.242667 0.170666h0.085333a32 32 0 0 0 5.461334-0.469333z m-280.490667-63.061333a42.666667 42.666667 0 0 0 0-85.333334h-192a42.666667 42.666667 0 1 0 0 85.333334h192z m76.8 149.333333a42.666667 42.666667 0 0 0 0-85.333333h-268.8a42.666667 42.666667 0 1 0 0 85.333333h268.8z m-150.528 149.333333a42.666667 42.666667 0 1 0 0-85.333333H343.68a42.666667 42.666667 0 1 0 0 85.333333h118.272z m193.194667 49.706667h86.784l-86.784 82.56v-82.56z"  horiz-adv-x="1024" />
      
      <glyph glyph-name="a-NewFile" unicode="&#59352;" d="M637.013333 810.666667a42.666667 42.666667 0 0 0 29.44-11.733334l190.677334-181.333333a42.666667 42.666667 0 0 0 13.269333-30.933333V426.666667a42.666667 42.666667 0 0 0-85.333333 0V524.074667h-172.544a42.666667 42.666667 0 0 0-42.666667 42.666666V725.333333H256v-682.666666h426.666667a42.666667 42.666667 0 1 0 0-85.333334H213.333333a42.666667 42.666667 0 0 0-42.666666 42.666667V768a42.666667 42.666667 0 0 0 42.666666 42.666667h423.68z m148.224-480a32 32 0 0 0 32-32v-74.709334h74.752a32 32 0 0 0 0-64h-74.752V85.333333a32 32 0 0 0-64 0v74.624h-74.581333a32 32 0 0 0 0 64h74.581333V298.666667a32 32 0 0 0 32 32z m-249.6-69.632a42.666667 42.666667 0 0 0 0-85.333334h-192a42.666667 42.666667 0 1 0 0 85.333334h192z m76.8 149.333333a42.666667 42.666667 0 0 0 0-85.333333h-268.8a42.666667 42.666667 0 1 0 0 85.333333h268.8z m-150.485333 149.333333a42.666667 42.666667 0 1 0 0-85.333333H343.68a42.666667 42.666667 0 1 0 0 85.333333h118.272z m193.194667 49.706667h86.784l-86.784 82.56v-82.56z"  horiz-adv-x="1024" />
      
      <glyph glyph-name="a-NewFolder" unicode="&#59353;" d="M420.266667 747.733333a42.666667 42.666667 0 0 0 28.586666-10.965333l79.573334-71.850667h350.421333a42.666667 42.666667 0 0 0 42.666667-42.666666V384a42.666667 42.666667 0 0 0-85.333334 0v22.485333l-648.362666 0.426667v-277.632H597.333333a42.666667 42.666667 0 1 0 0-85.333333H145.152a42.666667 42.666667 0 0 0-42.666667 42.666666V705.066667a42.666667 42.666667 0 0 0 42.666667 42.666666h275.157333z m369.152-417.066666a32 32 0 0 0 32-32v-74.709334H896a32 32 0 0 0 0-64h-74.581333V85.333333a32 32 0 0 0-64 0v74.624H682.666667a32 32 0 0 0 0 64h74.752V298.666667a32 32 0 0 0 32 32z m-601.6 161.536l648.362666-0.384V579.584H512a42.666667 42.666667 0 0 0-28.586667 11.008L403.882667 662.4H187.818667v-170.197333z"  horiz-adv-x="1024" />
      
      <glyph glyph-name="jonn" unicode="&#59350;" d="M621.568 810.666667a42.666667 42.666667 0 0 0 30.179556-12.515556l191.374222-191.345778a42.666667 42.666667 0 0 0 12.515555-30.151111V71.111111a113.777778 113.777778 0 0 0-113.777777-113.777778h-455.111112a113.777778 113.777778 0 0 0-113.777777 113.777778V696.888889a113.777778 113.777778 0 0 0 113.777777 113.777778h334.819556zM624.611556 810.666667a42.666667 42.666667 0 0 0 30.151111-12.515556l188.359111-188.302222a42.666667 42.666667 0 0 0 12.515555-30.179556v-3.669333a21.333333 21.333333 0 0 1-21.333333 21.333333h-155.164444c-20.366222 0-36.864 16.497778-36.864 36.864V789.333333a21.333333 21.333333 0 0 1-21.333334 21.333334h3.669334zM796.956444 250.936889v-138.467556h-36.152888l-63.658667 82.602667v-82.602667h-36.124445v138.467556h36.124445l64.739555-82.062222v82.062222h35.072zM637.582222 183.153778c0-22.072889-7.424-40.334222-22.243555-54.784-14.705778-13.994667-32.796444-20.963556-54.243556-20.963556-22.186667 0-40.419556 7.025778-54.784 21.134222-14.336 13.994667-21.504 31.772444-21.504 53.333334 0 21.703111 7.480889 39.594667 22.414222 53.703111 14.705778 13.624889 32.711111 20.423111 54.044445 20.423111 21.703111 0 39.822222-7.054222 54.414222-21.162667 14.592-13.852444 21.902222-31.089778 21.902222-51.683555z m-36.522666-0.739556c0 11.207111-3.811556 20.622222-11.377778 28.216889a38.741333 38.741333 0 0 1-28.586667 11.377778c-11.320889 0-20.849778-3.868444-28.558222-11.576889-7.480889-7.68-11.207111-17.408-11.207111-29.098667 0-11.804444 3.669333-21.447111 11.008-28.928 7.253333-7.480889 16.782222-11.207111 28.586666-11.207111 11.662222 0 21.333333 3.868444 28.928 11.576889 7.452444 7.708444 11.207111 17.607111 11.207112 29.639111zM471.04 152.576c0-14.08-5.717333-25.315556-17.152-33.621333-10.382222-7.68-23.096889-11.548444-38.172444-11.548445-8.675556 0-17.237333 1.735111-25.656889 5.233778a105.642667 105.642667 0 0 0-9.756445 4.522667 303.274667 303.274667 0 0 0-12.288 7.395555l14.449778 28.017778c10.012444-8.903111 20.849778-13.368889 32.540444-13.368889 5.546667 0 10.183111 0.910222 13.937778 2.730667 4.067556 1.905778 6.144 4.636444 6.144 8.135111 0 3.242667-0.739556 5.603556-2.190222 7.025778-1.792 1.934222-5.888 4.124444-12.288 6.542222l-11.747556 4.494222a138.951111 138.951111 0 0 0-8.874666 3.811556c-18.062222 8.305778-27.107556 21.617778-27.107556 39.936 0 13.255111 4.892444 24.035556 14.648889 32.369777a48.924444 48.924444 0 0 0 32.910222 11.747556c14.449778 0 29.212444-4.949333 44.288-14.819556l-14.108444-27.107555a40.163556 40.163556 0 0 1-27.847111 11.008c-9.272889 0-13.937778-4.039111-13.937778-12.117333 0-3.356444 1.763556-6.087111 5.262222-8.135112 0.739556-0.483556 1.991111-1.137778 3.811556-1.991111 1.792-0.711111 4.039111-1.564444 6.684444-2.531555l14.990222-5.973334c20.992-8.305778 31.459556-22.215111 31.459556-41.756444zM349.696 250.936889v-92.728889c0-14.592-3.413333-26.168889-10.325333-34.702222-7.452444-9.301333-18.375111-13.937778-32.711111-13.937778-8.305778 0-15.843556 1.877333-22.584889 5.603556a54.641778 54.641778 0 0 0-8.675556 5.603555 176.412444 176.412444 0 0 0-9.955555 8.675556l21.703111 20.992c4.920889-6.4 10.126222-9.585778 15.530666-9.585778 7.253333 0 10.865778 5.347556 10.865778 16.071111v94.008889h36.124445z"  horiz-adv-x="1024" />
      
      <glyph glyph-name="doc" unicode="&#59349;" d="M621.568 810.666667a42.666667 42.666667 0 0 0 30.179556-12.515556l191.374222-191.345778a42.666667 42.666667 0 0 0 12.515555-30.151111V71.111111a113.777778 113.777778 0 0 0-113.777777-113.777778h-455.111112a113.777778 113.777778 0 0 0-113.777777 113.777778V696.888889a113.777778 113.777778 0 0 0 113.777777 113.777778h334.819556zM624.611556 810.666667a42.666667 42.666667 0 0 0 30.151111-12.515556l188.359111-188.302222a42.666667 42.666667 0 0 0 12.515555-30.179556v-3.669333a21.333333 21.333333 0 0 1-21.333333 21.333333h-155.164444c-20.366222 0-36.864 16.497778-36.864 36.864V789.333333a21.333333 21.333333 0 0 1-21.333334 21.333334h3.669334zM759.665778 258.048v-42.951111c-11.008 9.244444-24.177778 13.852444-39.623111 13.852444-13.340444 0-23.722667-4.465778-31.146667-13.425777-7.025778-8.391111-10.524444-19.399111-10.524444-32.995556 0-12.515556 4.124444-22.698667 12.373333-30.549333 8.248889-7.850667 18.716444-11.747556 31.374222-11.747556 11.946667 0 24.348444 4.323556 37.148445 12.999111v-41.500444c-15.701333-6.997333-28.956444-10.524444-39.822223-10.524445-23.523556 0-43.207111 7.708444-59.022222 23.125334-15.815111 15.416889-23.722667 34.929778-23.722667 58.595555 0 24.206222 7.395556 44.373333 22.272 60.472889 15.132444 16.355556 34.816 24.547556 59.022223 24.547556 15.416889 0 29.297778-3.299556 41.671111-9.898667zM618.410667 186.026667c0-25.201778-8.448-46.023111-25.372445-62.549334-16.782222-15.928889-37.432889-23.921778-61.895111-23.921777-25.315556 0-46.165333 8.049778-62.520889 24.149333-16.384 15.928889-24.576 36.238222-24.576 60.871111 0 24.746667 8.533333 45.169778 25.6 61.269333 16.782222 15.559111 37.347556 23.324444 61.696 23.324445 24.746667 0 45.454222-8.049778 62.094222-24.149334 16.64-15.815111 24.974222-35.498667 24.974223-59.022222z m-41.671111-0.853334c0 12.8-4.352 23.523556-12.999112 32.199111-8.675556 8.675556-19.541333 12.999111-32.597333 12.999112-12.942222 0-23.808-4.408889-32.625778-13.198223-8.533333-8.817778-12.8-19.882667-12.8-33.223111 0-13.482667 4.209778-24.462222 12.600889-32.995555 8.248889-8.533333 19.114667-12.8 32.597334-12.8 13.368889 0 24.348444 4.380444 33.024 13.198222 8.533333 8.817778 12.8 20.081778 12.8 33.848889zM425.585778 186.254222c0-22.556444-6.741333-41.528889-20.224-56.945778-13.909333-15.957333-32.056889-23.950222-54.471111-23.950222H284.444444v158.065778h66.019556c22.016 0 40.049778-7.367111 54.044444-22.072889 14.051556-14.592 21.048889-32.967111 21.048889-55.096889z m-41.699556 0.597334c0 11.576889-3.413333 21.418667-10.296889 29.525333a34.872889 34.872889 0 0 1-27.875555 12.572444h-19.370667v-88.092444h18.147556c12.657778 0 22.556444 4.664889 29.724444 14.023111 6.456889 8.533333 9.671111 19.2 9.671111 31.971556z"  horiz-adv-x="1024" />
      
      <glyph glyph-name="Loglined" unicode="&#59628;" d="M870.4 768H217.6c-25.6 0-42.666667-17.066667-42.666667-42.666667v-153.6h-21.333333c-25.6 0-42.666667-17.066667-42.666667-42.666666s17.066667-42.666667 42.666667-42.666667h21.333333v-200.533333h-21.333333c-25.6 0-42.666667-17.066667-42.666667-42.666667s17.066667-42.666667 42.666667-42.666667h21.333333V42.666667c0-25.6 17.066667-42.666667 42.666667-42.666667h652.8c25.6 0 42.666667 17.066667 42.666667 42.666667V725.333333c0 25.6-21.333333 42.666667-42.666667 42.666667z m-42.666667-682.666667H260.266667v110.933334H298.666667c25.6 0 42.666667 17.066667 42.666666 42.666666s-17.066667 42.666667-42.666666 42.666667h-38.4V486.4H298.666667c25.6 0 42.666667 17.066667 42.666666 42.666667s-17.066667 42.666667-42.666666 42.666666h-38.4V682.666667h567.466666v-597.333334zM699.733333 332.8h-243.2c-25.6 0-42.666667-17.066667-42.666666-42.666667s17.066667-42.666667 42.666666-42.666666h243.2c25.6 0 42.666667 17.066667 42.666667 42.666666s-21.333333 42.666667-42.666667 42.666667zM456.533333 435.2h243.2c25.6 0 42.666667 17.066667 42.666667 42.666667s-17.066667 42.666667-42.666667 42.666666h-243.2c-25.6 0-42.666667-17.066667-42.666666-42.666666s17.066667-42.666667 42.666666-42.666667z"  horiz-adv-x="1024" />
      
      <glyph glyph-name="Doclined" unicode="&#59629;" d="M558.933333 230.4H366.933333c-25.6 0-42.666667-17.066667-42.666666-42.666667s17.066667-42.666667 42.666666-42.666666h192c25.6 0 42.666667 17.066667 42.666667 42.666666s-17.066667 42.666667-42.666667 42.666667zM324.266667 384c0-25.6 17.066667-42.666667 42.666666-42.666667h268.8c25.6 0 42.666667 17.066667 42.666667 42.666667s-17.066667 42.666667-42.666667 42.666667H366.933333c-25.6 0-42.666667-17.066667-42.666666-42.666667zM857.6 618.666667l-192 179.2c-8.533333 8.533333-17.066667 12.8-29.866667 12.8H213.333333c-25.6 0-42.666667-17.066667-42.666666-42.666667v-768c0-25.6 17.066667-42.666667 42.666666-42.666667h614.4c25.6 0 42.666667 17.066667 42.666667 42.666667V588.8c0 8.533333-4.266667 21.333333-12.8 29.866667zM640 708.266667L755.2 597.333333H640V708.266667zM785.066667 42.666667H256V725.333333h298.666667v-170.666666c0-25.6 17.066667-42.666667 42.666666-42.666667h187.733334v-469.333333z"  horiz-adv-x="1024" />
      
      <glyph glyph-name="daohangNavigation" unicode="&#59346;" d="M760.746667 220.288a32 32 0 0 0 39.850666 21.461333c37.376-11.221333 69.973333-25.216 93.866667-42.24 23.168-16.341333 44.544-40.277333 44.544-72.106666 0-31.872-21.376-55.850667-44.501333-72.234667-23.936-16.981333-56.533333-30.976-93.909334-42.154667-75.178667-22.570667-177.066667-36.053333-288.256-36.053333s-213.12 13.482667-288.256 36.053333c-37.376 11.178667-69.973333 25.173333-93.909333 42.154667-23.125333 16.384-44.501333 40.362667-44.501333 72.192 0 31.872 21.376 55.808 44.501333 72.192 23.936 16.981333 56.533333 30.976 93.866667 42.197333a32 32 0 0 0 18.432-61.354666c-34.048-10.197333-59.306667-21.717333-75.264-33.066667-16.768-11.861333-17.536-19.072-17.536-19.968 0-0.853333 0.725333-8.064 17.536-19.968 16-11.349333 41.216-22.912 75.264-33.109333 67.669333-20.309333 163.072-33.322667 269.866666-33.322667 106.752 0 202.197333 13.013333 269.866667 33.322667 34.048 10.24 59.264 21.76 75.264 33.109333 16.810667 11.904 17.493333 19.114667 17.493333 19.968 0 0.896-0.768 8.106667-17.493333 19.968-16 11.349333-41.216 22.869333-75.264 33.109333a32 32 0 0 0-21.461333 39.850667zM512.341333 652.714667a130.645333 130.645333 0 1 0 0-261.333334 130.645333 130.645333 0 0 0 0 261.333334z m0-64a66.688 66.688 0 1 1 0-133.333334 66.688 66.688 0 0 1 0 133.333334zM511.872 810.581333c158.592 0 288.554667-125.610667 288.554667-282.24 0-96.298667-55.082667-183.296-111.701334-247.978666-57.344-65.493333-120.874667-113.28-146.773333-131.669334-18.090667-12.8-42.069333-12.8-60.117333 0-25.941333 18.389333-89.429333 66.176-146.773334 131.669334-56.661333 64.682667-111.744 151.68-111.744 247.978666 0 156.586667 129.962667 282.24 288.554667 282.24z m0-64c-124.757333 0-224.554667-98.474667-224.554667-218.24 0-72.746667 42.453333-144.810667 95.829334-205.781333 48.085333-54.912 101.461333-96.64 128.682666-116.48 27.178667 19.84 80.64 61.525333 128.725334 116.48 53.333333 60.970667 95.872 133.034667 95.872 205.781333 0 119.765333-99.797333 218.24-224.554667 218.24z"  horiz-adv-x="1024" />
      
      <glyph glyph-name="ganzhiPerception" unicode="&#59347;" d="M512 810.666667a32 32 0 0 0 32-32v-175.658667l0.085333-1.962667-0.085333-1.621333v-130.133333A91.178667 91.178667 0 1 0 420.693333 384c0 39.168 24.661333 72.490667 59.306667 85.418667v96.853333a185.088 185.088 0 1 1 178.218667-68.693333 32 32 0 0 0 50.474666 39.253333 249.088 249.088 0 1 0-228.693333 94.122667V745.216A362.666667 362.666667 0 0 1 512 21.333333a362.666667 362.666667 0 0 1 286.378667 585.216 32 32 0 0 0 50.517333 39.253334A424.96 424.96 0 0 0 938.666667 384c0-235.648-191.018667-426.666667-426.666667-426.666667S85.333333 148.352 85.333333 384 276.352 810.666667 512 810.666667z m-0.128-399.445334a27.221333 27.221333 0 1 1 0-54.442666 27.221333 27.221333 0 0 1 0 54.442666z"  horiz-adv-x="1024" />
      
      <glyph glyph-name="caozuoManipulation" unicode="&#59348;" d="M845.44 768.213333a32 32 0 0 0 0-64.042666h-135.424L630.4 624.64l79.616-79.616h135.424a32 32 0 0 0 0-64h-139.861333c-14.122667 0-27.733333 5.632-37.76 15.658667l-90.197334 90.197333a53.674667 53.674667 0 0 0-4.906666 5.76H314.453333a106.24 106.24 0 0 0-27.989333-44.8l141.013333-299.605333h399.658667c38.058667 0 68.906667-30.848 68.906667-68.906667v-108.458667c0-29.354667-23.765333-53.12-53.12-53.12H181.461333a53.12 53.12 0 0 0-53.12 53.12v108.458667c0 38.058667 30.848 68.906667 68.906667 68.906667h159.488l-127.701333 271.36a106.88 106.88 0 0 0-16-1.365334A106.410667 106.410667 0 1 0 314.496 656.64h258.218667c1.493333 1.962667 3.114667 3.882667 4.906666 5.674667l90.197334 90.24c10.026667 9.984 23.637333 15.658667 37.76 15.658666h139.861333zM197.248 184.533333a5.162667 5.162667 0 0 1-5.162667-5.205333v-97.792h640.256v97.792a5.162667 5.162667 0 0 1-5.162666 5.162667H197.248z m15.786667 482.432a42.368 42.368 0 1 1 0-84.778666 42.368 42.368 0 0 1 0 84.778666z"  horiz-adv-x="1024" />
      
      <glyph glyph-name="a-Frame1312318413" unicode="&#59344;" d="M509.6448 106.5472a296.4992 296.4992 0 1 1 0 593.0496 296.4992 296.4992 0 0 1 0-593.0496zM806.0928 403.3024a296.5504 296.5504 0 1 1-593.1008 0 296.5504 296.5504 0 0 1 593.1008 0z m-627.2 0a330.6496 330.6496 0 1 0 661.3504 0 330.6496 330.6496 0 0 0-661.3504 0zM605.9008 483.84c10.9568-3.7888 15.2064-26.112 26.2144-20.3264a42.6496 42.6496 0 1 1-57.7024 17.664c5.2224-9.8304 21.76 6.144 31.5904 2.7136l-0.1024-0.0512z m-200.96 0c-10.9056-3.7888-15.2576-26.112-26.1632-20.3264a42.6496 42.6496 0 1 0 57.6512 17.664c-5.1712-9.8304-21.8112 6.144-31.5392 2.7136l0.0512-0.0512zM507.4432 279.2448c83.8656 0 110.9504 74.752 110.9504 113.152 0 19.968-13.4144 13.6192-34.9184 3.072-19.8656-9.8304-46.592-23.3984-75.9296-23.3984-61.3888 0-110.9504 58.7264-110.9504 20.3264s26.9824-113.152 110.9504-113.152H507.392zM443.2896 298.752a74.24 74.24 0 0 0 45.2096 38.2976c3.4304 1.024 6.912-4.864 10.5984-10.9056 3.3792-5.8368 6.9632-11.7248 10.5472-11.7248 3.84 0 7.68 5.8368 11.3664 11.52 3.84 5.9904 7.5776 11.776 11.264 10.7008 18.3296-5.8368 33.6384-18.6368 42.6496-35.584 31.8464 25.088 43.52 66.048 43.52 91.2896 0 19.968-13.3632 13.6704-34.8672 3.072l-1.2288-0.6144c-19.712-9.7792-45.9776-22.784-74.8032-22.784-28.8768 0-55.04 13.0048-74.8544 22.784-22.1696 11.008-36.096 17.92-36.096-2.4576 0-26.0096 12.4416-68.7616 46.6944-93.5936zM710.0928 443.8016a27.7504 27.7504 0 1 1 0 55.4496 27.7504 27.7504 0 0 1 0-55.4496z m-396.8 0a27.7504 27.7504 0 1 1 0 55.5008 27.7504 27.7504 0 0 1 0-55.5008z m-57.088-93.8496c-13.824 0-26.112-5.632-34.7648-15.9744a50.944 50.944 0 0 1-11.3152-32.0512 60.4672 60.4672 0 0 1-16.5888 2.56 45.1072 45.1072 0 0 1-33.5872-14.1824 49.4592 49.4592 0 0 1-6.8608-59.7504 45.2096 45.2096 0 0 1-15.2576-24.064c-2.048-7.68-4.096-23.8592 6.8096-40.448a44.544 44.544 0 0 1-3.1232-42.8032c8.704-19.8144 30.464-35.328 72.704-52.0704 26.1632-10.3936 50.2272-17.0496 50.432-17.152a378.2656 378.2656 0 0 1 93.2352-13.6704c50.0224 0 85.76 15.36 106.3424 45.568 33.1264 48.5888 28.416 93.0304-14.4896 135.8848-23.6544 23.7056-39.424 58.624-42.7008 66.304-6.656 22.6816-24.2176 47.9232-53.2992 47.9232a48.64 48.64 0 0 1-39.2704-20.992 112.128 112.128 0 0 1-24.4224 24.064 63.1296 63.1296 0 0 1-33.8432 10.8544z m0-34.1504a30.72 30.72 0 0 0 15.5136-5.5296c18.2784-11.6224 53.3504-71.936 66.2016-95.3856a20.736 20.736 0 0 1 18.2784-11.2128c13.2096 0 23.4496 13.056 1.28 29.696-33.4336 25.0368-21.76 65.8944-5.7856 68.352 0.6656 0.2048 1.4336 0.2048 2.048 0.2048 14.4896 0 20.8896-25.0368 20.8896-25.0368s18.7904-47.104 51.0464-79.36c32.1536-32.1536 33.8432-58.0096 10.3936-92.416-16.0256-23.4496-46.6944-30.5152-78.1824-30.5152-32.512 0-65.9456 7.68-84.6336 12.4416-0.9216 0.256-114.7904 32.4096-100.352 59.7504 2.4064 4.608 6.4 6.4512 11.4176 6.4512 20.3264 0 57.1904-30.208 73.1648-30.208 3.4816 0 5.9392 1.4848 7.0656 5.12 6.7584 24.32-102.912 34.56-93.696 69.7344 1.6896 6.2464 6.0416 8.704 12.288 8.704 26.7776 0 87.04-47.2064 99.6864-47.2064 0.9216 0 1.6896 0.256 2.048 0.8704 6.2976 10.24 2.816 17.408-41.8304 44.3904-44.4416 26.9312-75.776 43.1616-58.0096 62.5152 2.048 2.2528 4.9152 3.2768 8.4992 3.2768 27.0848 0 90.9824-58.2144 90.9824-58.2144s17.2544-17.92 27.7504-17.92a6.144 6.144 0 0 1 5.7856 3.2256c7.3216 12.4928-68.7616 70.144-73.0624 93.952-2.8672 16.2304 2.048 24.32 11.2128 24.32zM436.1728 105.2672c23.4496 34.4576 21.76 60.3136-10.3936 92.4672-32.256 32.2048-51.0464 79.36-51.0464 79.36s-7.0144 27.2896-22.9376 24.7296c-15.9744-2.56-27.648-43.3152 5.7856-68.352 33.3824-24.9856-6.656-41.984-19.5584-18.4832-12.8 23.4496-47.9232 83.7632-66.2016 95.3856-18.176 11.52-30.976 5.12-26.7264-18.7904 4.3008-23.808 80.4864-81.4592 73.0624-93.8496-7.424-12.544-33.536 14.592-33.536 14.592S202.9568 286.72 185.1392 267.264c-17.7664-19.3536 13.568-35.584 58.0096-62.5152 44.6464-26.9824 48.128-34.1504 41.8304-44.3904-6.4-10.24-104.8064 72.8064-114.0224 37.5808-9.216-35.072 100.4544-45.2608 93.696-69.5808-6.8096-24.32-77.312 45.9264-91.648 18.6368-14.4896-27.4432 99.4304-59.5968 100.352-59.8528 36.7104-9.5744 130.1504-29.7984 162.816 18.1248zM767.2832 349.952c13.824 0 26.1632-5.632 34.7136-15.9232a50.9952 50.9952 0 0 0 11.3664-32.1024 60.416 60.416 0 0 0 16.64 2.56 45.056 45.056 0 0 0 33.5872-14.1824 49.4592 49.4592 0 0 0 6.8096-59.6992c7.5264-6.144 12.8512-14.6432 15.2064-24.064 2.048-7.68 4.096-23.9104-6.8096-40.448a44.4928 44.4928 0 0 0 3.1232-42.8544c-8.704-19.8144-30.464-35.328-72.6016-52.0704-26.2656-10.3936-50.3296-17.0496-50.5344-17.152A378.5728 378.5728 0 0 0 665.6 40.448c-50.0224 0-85.76 15.36-106.3424 45.568-33.1264 48.5376-28.416 92.9792 14.5408 135.8336 23.7056 23.7056 39.4752 58.624 42.752 66.304 6.656 22.6816 24.1152 47.9744 53.248 47.9744a48.64 48.64 0 0 0 39.2192-20.992c8.5504 10.752 16.896 19.2 24.5248 24.064 9.984 6.7584 21.7088 10.496 33.792 10.8032z m0-34.0992a30.976 30.976 0 0 1-15.5648-5.5808c-18.176-11.5712-53.3504-71.936-66.2016-95.3856a20.6848 20.6848 0 0 0-18.2784-11.1616c-13.1584 0-23.4496 13.056-1.1776 29.696 33.3824 24.9856 21.6576 65.8432 5.6832 68.352a13.1072 13.1072 0 0 1-2.048 0.1536c-14.4896 0-20.8896-24.9856-20.8896-24.9856s-18.7904-47.104-50.944-79.36c-32.256-32.2048-33.9456-58.0608-10.3936-92.416 15.9744-23.5008 46.6944-30.5664 78.08-30.5664 32.5632 0 65.9456 7.68 84.736 12.4416 0.8704 0.256 114.7392 32.4608 100.352 59.7504-2.5088 4.608-6.4 6.5024-11.4688 6.5024-20.2752 0-57.2416-30.208-73.1136-30.208-3.584 0-6.0416 1.4336-7.0656 5.12-6.8096 24.32 102.8096 34.56 93.5936 69.6832-1.6384 6.2464-5.9904 8.704-12.288 8.704-26.7776 0-87.04-47.1552-99.6352-47.1552-0.8704 0-1.6384 0.256-1.9968 0.8192-6.2976 10.24-2.8672 17.408 41.6768 44.3904 44.5952 26.9824 75.9296 43.1616 58.0096 62.5664-1.9456 2.2016-4.864 3.2256-8.3456 3.2256-27.136 0-91.0848-58.2144-91.0848-58.2144s-17.2544-17.92-27.648-17.92a6.2976 6.2976 0 0 0-5.7856 3.2768c-7.424 12.4416 68.6592 70.144 72.96 93.952 2.8672 16.1792-2.048 24.32-11.2128 24.32zM587.52 105.2672c-23.4496 34.4576-21.8112 60.3136 10.4448 92.4672 32.1536 32.2048 50.944 79.36 50.944 79.36s6.9632 27.2896 23.04 24.7296c15.872-2.56 27.5456-43.3152-5.8368-68.352-33.4336-24.9856 6.656-41.984 19.456-18.4832 12.9024 23.4496 48.0768 83.7632 66.2528 95.3856 18.176 11.52 31.0272 5.12 26.6752-18.7904-4.2496-23.808-80.384-81.4592-72.96-93.8496 7.3728-12.544 33.4848 14.592 33.4848 14.592s81.7152 74.3424 99.4816 54.9376c17.7664-19.3536-13.4656-35.584-58.0096-62.5152-44.6464-26.9824-48.0768-34.1504-41.8304-44.3904 6.4-10.24 104.8064 72.8064 114.0224 37.5808 9.216-35.072-100.352-45.2608-93.6448-69.5808 6.8608-24.32 77.2608 45.9264 91.648 18.6368 14.4384-27.4432-99.3792-59.5968-100.352-59.8528-36.7616-9.5744-130.2016-29.7984-162.816 18.1248z"  horiz-adv-x="1024" />
      
      <glyph glyph-name="a-Frame1312318414" unicode="&#59345;" d="M442.3168 469.8624l70.0928-84.736 206.4896 242.5856c10.9056 14.5408 16.0768 22.1696 10.9056 34.56a37.6832 37.6832 0 0 1-32.768 23.1424 29.44 29.44 0 0 1-22.0672-8.0896L442.3168 469.8624zM627.0976 429.568L299.008 744.448a43.7248 43.7248 0 0 1-25.8048 15.4624 33.7408 33.7408 0 0 1-31.744-20.4288c-5.1712-12.3904-1.4848-21.0944 9.8304-37.3248l261.12-316.928-194.3552-238.6944a41.3184 41.3184 0 0 1-9.984-40.2432 34.4576 34.4576 0 0 1 32.2048-21.3504 30.6688 30.6688 0 0 1 23.1424 11.264l263.5776 245.0944a59.5968 59.5968 0 0 1 0.1536 88.32zM775.3728 67.6352l-263.7824 317.952-70.0928 84.6848-42.9568-38.8096a63.8464 63.8464 0 0 1 0-91.7504l334.5408-322.3552a28.5696 28.5696 0 0 1 22.9376-8.704 32.2048 32.2048 0 0 1 29.4912 20.5824 39.0656 39.0656 0 0 1-10.1376 38.4z"  horiz-adv-x="1024" />
      
      <glyph glyph-name="a-NewOC_Instructionexpend" unicode="&#59343;" d="M608 480v-448h-448v448h448zM784.106667 279.381333c0 25.962667 31.381333 38.954667 49.749333 20.608l94.506667-94.506666a29.141333 29.141333 0 0 0 0-41.216l-94.506667-94.506667c-18.346667-18.346667-49.749333-5.333333-49.749333 20.608v62.506667H640v64h144.106667v62.506666zM867.456 768c16.106667 0 29.141333-13.056 29.141333-29.162667v-133.632c0-25.962667-31.381333-38.976-49.749333-20.608l-44.181333 44.181334L640 466.133333V490.666667a21.333333 21.333333 0 0 1-21.333333 21.333333h-23.296l162.048 162.048-44.202667 44.224c-18.346667 18.346667-5.354667 49.728 20.586667 49.749333h133.653333zM292.096 800.725333a29.141333 29.141333 0 0 0 41.216 0l94.506667-94.506666c18.346667-18.346667 5.354667-49.749333-20.608-49.749334H344.746667V512h-64v144.469333h-62.570667c-25.941333 0-38.954667 31.402667-20.608 49.749334l94.506667 94.506666z"  horiz-adv-x="1024" />
      
      <glyph glyph-name="NewOC_expand" unicode="&#59340;" d="M873.813333 712.896c0 18.154667-14.698667 32.853333-32.853333 32.874667H183.168c-18.154667 0-32.853333-14.72-32.874667-32.874667v-657.792c0-18.154667 14.72-32.853333 32.853334-32.874667H840.96c18.154667 0 32.853333 14.72 32.853333 32.874667V712.896z m65.813334-657.792a98.688 98.688 0 0 0-98.666667-98.666667H183.168a98.688 98.688 0 0 0-98.666667 98.666667V712.896a98.688 98.688 0 0 0 98.666667 98.666667H840.96a98.688 98.688 0 0 0 98.666667-98.666667v-657.792zM394.218667 682.666667c28.842667 0 43.306667-34.858667 22.912-55.253334l-51.562667-51.584L512 429.376l146.432 146.432-51.584 51.584C586.496 647.808 600.96 682.666667 629.802667 682.666667h148.48c17.898667 0 32.384-14.506667 32.384-32.384v-148.48c0-28.864-34.858667-43.306667-55.253334-22.933334l-51.712 51.690667-146.432-146.432 146.56-146.56 51.562667 51.562667c20.416 20.373333 55.274667 5.930667 55.274667-22.933334v-148.48c0-17.898667-14.506667-32.384-32.384-32.384h-148.48c-28.864 0-43.306667 34.858667-22.933334 55.253334l51.690667 51.733333-146.56 146.56-146.56-146.581333 51.690667-51.690667c20.373333-20.416 5.930667-55.274667-22.933334-55.274667h-148.48C227.84 85.333333 213.333333 99.84 213.333333 117.717333v148.48c0 28.864 34.858667 43.306667 55.253334 22.933334l51.605333-51.584 146.56 146.56-146.453333 146.474666-51.690667-51.712c-20.416-20.373333-55.274667-5.930667-55.274667 22.933334v148.48c0 17.877333 14.506667 32.384 32.384 32.384h148.48z"  horiz-adv-x="1024" />
      
      <glyph glyph-name="NewOC_robustness" unicode="&#59341;" d="M117.333333 725.333333a32 32 0 1 0 64 0v-672H874.666667a32 32 0 0 0 0-64H149.333333A32 32 0 0 0 117.333333 21.333333V725.333333zM544.384 330.666667c81.984 0 135.04-33.066667 179.626667-62.08 26.410667-17.152 48.917333-32 73.322666-41.322667l-13.994666 29.056a32 32 0 1 0 57.6 27.797333l41.194666-85.333333a32 32 0 0 0-8.96-39.018667l-72.106666-56.896a32 32 0 0 0-39.658667 50.261334l16.597333 13.098666c-34.602667 12.544-62.933333 31.850667-88.874666 48.725334-42.944 27.904-82.56 51.712-144.746667 51.712-58.261333 0-107.477333-22.186667-151.509333-51.968-22.101333-14.933333-42.496-31.509333-61.994667-47.893334-18.986667-15.914667-38.186667-32.576-55.914667-45.610666a32 32 0 1 0-37.930666 51.541333c15.573333 11.456 32.32 26.026667 52.693333 43.114667 19.882667 16.661333 42.346667 34.986667 67.285333 51.84 50.026667 33.834667 111.722667 62.976 187.370667 62.976zM501.333333 778.666667a10.666667 10.666667 0 0 0 10.666667-10.666667v-106.666667h106.666667a10.666667 10.666667 0 0 0 10.666666-10.666666v-85.333334a10.666667 10.666667 0 0 0-10.666666-10.666666h-106.666667v-106.666667a10.666667 10.666667 0 0 0-10.666667-10.666667h-85.333333a10.666667 10.666667 0 0 0-10.666667 10.666667v106.666667h-106.666666a10.666667 10.666667 0 0 0-10.666667 10.666666v85.333334a10.666667 10.666667 0 0 0 10.666667 10.666666h106.666666V768a10.666667 10.666667 0 0 0 10.666667 10.666667h85.333333z"  horiz-adv-x="1024" />
      
      <glyph glyph-name="a-NewOC_sceneexpand" unicode="&#59342;" d="M316.48 263.125333a32 32 0 0 0 0-64h-56.32l-79.466667-165.333333h662.698667l-79.466667 165.333333h-56.32a32 32 0 0 0 0 64h76.458667l2.282667-0.085333a32 32 0 0 0 26.538666-18.069333l110.229334-229.333334a32 32 0 0 0-28.842667-45.866666H129.834667a32 32 0 0 0-28.842667 45.866666L211.2 244.970667c5.333333 11.093333 16.554667 18.133333 28.842667 18.133333h76.437333zM491.306667 800.725333a29.141333 29.141333 0 0 0 41.216 0l94.528-94.506666c18.346667-18.346667 5.354667-49.749333-20.608-49.749334H544v-179.626666h179.648v62.357333c0 25.962667 31.402667 38.954667 49.770667 20.608l94.506666-94.506667a29.141333 29.141333 0 0 0 0-41.237333l-94.506666-94.506667c-18.368-18.346667-49.770667-5.333333-49.770667 20.629334V412.8h-179.626667v-179.904h62.421334c25.962667 0 38.954667-31.402667 20.608-49.749333l-94.506667-94.506667a29.141333 29.141333 0 0 0-41.216 0l-94.506667 94.506667c-18.346667 18.346667-5.354667 49.749333 20.608 49.749333H480V412.8h-179.797333v-62.634667c0-25.962667-31.402667-38.976-49.749334-20.608l-94.506666 94.506667a29.141333 29.141333 0 0 0 0 41.194667l94.506666 94.506666c18.346667 18.368 49.749333 5.376 49.749334-20.586666v-62.378667H480v179.648h-62.570667c-25.962667 0-38.954667 31.381333-20.608 49.749333l94.506667 94.506667z"  horiz-adv-x="1024" />
      
      <glyph glyph-name="shezhisetting" unicode="&#59333;" d="M511.957333 565.290667a181.290667 181.290667 0 1 0 0-362.581334 181.290667 181.290667 0 0 0 0 362.581334z m0-63.957334a117.376 117.376 0 1 1 0-234.752 117.376 117.376 0 0 1 0 234.752zM574.293333 757.290667c17.706667 18.346667 50.858667 39.04 87.594667 25.258666a426.24 426.24 0 0 0 114.517333-64.725333c28.501333-22.528 30.122667-58.282667 25.6-81.792a86.4 86.4 0 0 1 84.906667-102.656c12.8 0 24.789333-7.253333 30.634667-18.901333l2.133333-5.248 4.352-15.061334a429.141333 429.141333 0 0 0 8.32-184.618666c-4.181333-24.32-25.770667-37.546667-45.44-37.546667a86.4 86.4 0 0 1-80.384-118.058667c9.898667-25.088 14.933333-67.712-17.28-95.274666a426.794667 426.794667 0 0 0-112.768-69.461334c-41.728-17.493333-78.933333 10.24-96.341333 32.469334a86.186667 86.186667 0 0 1-68.138667 33.28 86.186667 86.186667 0 0 1-68.138667-33.28c-17.365333-22.186667-54.613333-49.92-96.341333-32.469334a426.666667 426.666667 0 0 0-112.768 69.418667c-32.256 27.562667-27.178667 70.229333-17.28 95.317333a86.4 86.4 0 0 1-80.384 118.101334c-19.669333 0-41.258667 13.184-45.482667 37.461333a429.184 429.184 0 0 0 12.714667 199.722667l2.133333 5.248a34.304 34.304 0 0 0 30.634667 18.858666l8.832 0.469334a86.4 86.4 0 0 1 76.032 102.229333c-4.48 23.466667-2.858667 59.264 25.6 81.792A426.154667 426.154667 0 0 0 362.154667 782.506667c36.693333 13.781333 69.888-6.912 87.552-25.258667 15.786667-16.426667 37.845333-26.624 62.336-26.624 24.490667 0 46.549333 10.197333 62.293333 26.624z m65.109334-34.688c-0.853333 0.298667-2.56 0.725333-6.016-0.597334a37.034667 37.034667 0 0 1-12.885334-9.088A150.101333 150.101333 0 0 0 512 666.666667 150.101333 150.101333 0 0 0 403.498667 712.96a37.034667 37.034667 0 0 1-12.885334 9.088c-3.498667 1.322667-5.205333 0.896-6.016 0.597333a362.24 362.24 0 0 1-97.365333-54.997333c-0.64-0.512-1.792-1.706667-2.56-5.034667a36.181333 36.181333 0 0 1 0.128-14.549333 150.4 150.4 0 0 0-124.586667-176.853333 363.605333 363.605333 0 0 1-7.808-135.893334 150.442667 150.442667 0 0 0 124.586667-204.8 38.741333 38.741333 0 0 1-2.986667-17.152c0.426667-4.096 1.664-5.418667 2.389334-6.058666a362.538667 362.538667 0 0 1 95.786666-59.050667c0.853333-0.341333 2.730667-0.896 6.826667 0.853333a40.32 40.32 0 0 1 14.464 12.032A150.186667 150.186667 0 0 0 512 118.954667a150.186667 150.186667 0 0 0 118.528-57.856 40.32 40.32 0 0 1 14.506667-11.989334c4.053333-1.792 5.888-1.28 6.826666-0.853333a362.538667 362.538667 0 0 1 95.786667 59.008c0.682667 0.64 1.92 1.962667 2.304 6.058667a38.698667 38.698667 0 0 1-2.986667 17.109333 150.442667 150.442667 0 0 0 124.544 204.8 366.421333 366.421333 0 0 1-7.68 135.936 150.4 150.4 0 0 0-124.586666 176.853333 36.138667 36.138667 0 0 1 0.085333 14.506667c-0.768 3.328-1.92 4.565333-2.56 5.077333a362.24 362.24 0 0 1-97.365333 54.997334z"  horiz-adv-x="1024" />
      
      <glyph glyph-name="shangchuanupoad" unicode="&#59334;" d="M864 277.333333a32 32 0 0 0 32-32v-42.666666A202.666667 202.666667 0 0 0 693.333333 0h-362.666666A202.666667 202.666667 0 0 0 128 202.666667v42.666666a32 32 0 0 0 64 0v-42.666666a138.666667 138.666667 0 0 1 138.666667-138.666667h362.666666a138.666667 138.666667 0 0 1 138.666667 138.666667v42.666666a32 32 0 0 0 32 32zM459.008 745.898667a74.666667 74.666667 0 0 0 105.984 0l161.706667-162.986667a32 32 0 0 0-45.397334-45.098667L544 676.224v-416.64a32 32 0 0 0-64 0V676.224L342.698667 537.813333a32 32 0 0 0-45.397334 45.098667l161.706667 162.986667z"  horiz-adv-x="1024" />
      
      <glyph glyph-name="xiazaidownload" unicode="&#59335;" d="M864 277.333333a32 32 0 0 0 32-32v-42.666666A202.666667 202.666667 0 0 0 693.333333 0h-362.666666A202.666667 202.666667 0 0 0 128 202.666667v42.666666a32 32 0 0 0 64 0v-42.666666a138.666667 138.666667 0 0 1 138.666667-138.666667h362.666666a138.666667 138.666667 0 0 1 138.666667 138.666667v42.666666a32 32 0 0 0 32 32zM512 768a32 32 0 0 0 32-32v-416.64l137.301333 138.410667a32 32 0 0 0 45.397334-45.098667l-161.706667-162.986667c-29.184-29.44-76.8-29.44-105.984 0l-161.706667 162.986667a32 32 0 0 0 45.397334 45.056l137.301333-138.368V736A32 32 0 0 0 512 768z"  horiz-adv-x="1024" />
      
      <glyph glyph-name="jinengskill" unicode="&#59336;" d="M284.373333 651.946667a202.666667 202.666667 0 0 0 192.170667 0l92.416-49.792a202.666667 202.666667 0 0 0 106.581333-178.432v-140.928a32 32 0 0 0-64 0v140.928a138.666667 138.666667 0 0 1-72.917333 122.069333l-92.458667 49.792a138.666667 138.666667 0 0 1-131.456 0L222.250667 545.792A138.666667 138.666667 0 0 1 149.333333 423.722667v-119.978667a138.666667 138.666667 0 0 1 72.917334-122.069333l173.354666-93.354667a32 32 0 0 0-30.293333-56.32l-173.397333 93.354667A202.666667 202.666667 0 0 0 85.333333 303.744v119.978667a202.666667 202.666667 0 0 0 106.581334 178.432L284.373333 651.946667zM615.594667 722.986667a32 32 0 0 0 43.349333 13.013333l173.354667-93.312a202.666667 202.666667 0 0 0 106.581333-178.474667v-119.978666a202.666667 202.666667 0 0 0-106.581333-178.389334L739.84 116.053333a202.666667 202.666667 0 0 0-192.170667 0l-92.458666 49.792a202.666667 202.666667 0 0 0-106.581334 178.389334V485.205333a32 32 0 0 0 64 0v-140.970666a138.666667 138.666667 0 0 1 72.917334-122.026667l92.458666-49.792a138.666667 138.666667 0 0 1 131.413334 0l92.501333 49.749333a138.666667 138.666667 0 0 1 72.917333 122.069334V464.213333a138.666667 138.666667 0 0 1-72.96 122.069334L628.650667 679.68a32 32 0 0 0-13.013334 43.306667z"  horiz-adv-x="1024" />
      
      <glyph glyph-name="shanchudelete" unicode="&#59337;" d="M608 245.333333a32 32 0 0 0 0-64h-192a32 32 0 0 0 0 64h192zM592.597333 787.541333a117.333333 117.333333 0 0 0 115.626667-97.493333l6.784-39.381333h148.992a32 32 0 0 0 0-64h-67.84l-29.482667-456.533334a160 160 0 0 0-159.658666-149.717333H416.810667a160 160 0 0 0-159.701334 149.674667l-29.44 456.533333H160a32 32 0 0 0 0 64h148.992l6.741333 39.424a117.333333 117.333333 0 0 0 115.669334 97.493333h161.194666zM320.981333 134.229333a96 96 0 0 1 95.829334-89.813333h190.208a96 96 0 0 1 95.786666 89.813333l29.141334 452.437334H291.84l29.184-452.437334z m110.421334 589.354667a53.333333 53.333333 0 0 1-52.565334-44.373333l-4.864-28.586667h276.053334l-4.864 28.586667a53.333333 53.333333 0 0 1-52.565334 44.373333H431.36z"  horiz-adv-x="1024" />
      
      <glyph glyph-name="daimacode" unicode="&#59338;" d="M556.458667 723.2a32.042667 32.042667 0 0 0 62.421333-14.250667l-151.338667-664.106666a32 32 0 0 0-62.421333 14.208L556.458667 723.2zM231.253333 605.568a32 32 0 0 0 49.877334-40.192l-119.296-147.925333a53.333333 53.333333 0 0 1 0-66.944l119.296-147.925334a32 32 0 0 0-49.834667-40.149333l-119.296 147.882667a117.333333 117.333333 0 0 0 0 147.328L231.253333 605.568zM747.861333 610.389333a32 32 0 0 0 45.013334-4.821333l119.168-147.968a117.333333 117.333333 0 0 0 0-147.2l-119.168-147.968a32 32 0 0 0-49.834667 40.149333l119.168 147.925334a53.333333 53.333333 0 0 1 0 66.901333l-119.168 147.968a32 32 0 0 0 4.821333 45.013333z"  horiz-adv-x="1024" />
      
      <glyph glyph-name="bianjiedit" unicode="&#59339;" d="M864 64a32 32 0 1 0 0-64H160a32 32 0 0 0 0 64h704zM629.589333 755.968a96 96 0 0 0 135.808 0l65.365334-65.322667a96 96 0 0 0 0-135.765333l-383.530667-383.658667a74.709333 74.709333 0 0 0-52.821333-21.888H256a32 32 0 0 0-32 32v137.685334c0 19.754667 7.850667 38.741333 21.845333 52.736l383.744 384.213333z m90.538667-45.226667a32 32 0 0 1-45.226667 0l-383.786666-384.213333a10.709333 10.709333 0 0 1-3.114667-7.509333V213.333333h106.410667a10.666667 10.666667 0 0 1 7.552 3.114667l383.488 383.658667a32 32 0 0 1 0 45.269333l-65.322667 65.365333z"  horiz-adv-x="1024" />
      
      <glyph glyph-name="Noticelined" unicode="&#59626;" d="M742.4 721.066667c-21.333333 12.8-46.933333 4.266667-59.733333-17.066667-12.8-21.333333-4.266667-46.933333 12.8-59.733333 93.866667-59.733333 153.6-162.133333 153.6-277.333334 0-119.466667-64-221.866667-157.866667-281.6-21.333333-12.8-25.6-38.4-12.8-59.733333 12.8-21.333333 38.4-25.6 59.733333-12.8 119.466667 72.533333 200.533333 204.8 200.533334 354.133333 0 149.333333-76.8 281.6-196.266667 354.133334zM554.666667 806.4c-12.8 8.533333-29.866667 4.266667-42.666667-4.266667-59.733333-46.933333-123.733333-93.866667-170.666667-132.266666-25.6-17.066667-42.666667-34.133333-59.733333-42.666667 0-4.266667-4.266667-8.533333-8.533333-8.533333H170.666667c-46.933333 0-85.333333-38.4-85.333334-85.333334v-294.4c0-46.933333 34.133333-85.333333 85.333334-85.333333h102.4c4.266667 0 4.266667-4.266667 8.533333-4.266667 12.8-8.533333 29.866667-25.6 55.466667-42.666666 46.933333-34.133333 106.666667-85.333333 179.2-136.533334 12.8-8.533333 29.866667-12.8 46.933333-4.266666 12.8 8.533333 25.6 21.333333 25.6 38.4V768c-8.533333 17.066667-17.066667 29.866667-34.133333 38.4zM494.933333 85.333333c-42.666667 34.133333-76.8 59.733333-106.666666 85.333334-21.333333 17.066667-42.666667 29.866667-55.466667 42.666666-4.266667 4.266667-12.8 8.533333-12.8 12.8l-4.266667 4.266667c-4.266667 4.266667-12.8 8.533333-21.333333 8.533333H170.666667V533.333333h115.2c8.533333 0 17.066667 4.266667 25.6 8.533334 0 0 4.266667 0 4.266666 4.266666 8.533333 4.266667 12.8 8.533333 21.333334 12.8 12.8 12.8 34.133333 25.6 59.733333 42.666667 29.866667 21.333333 64 51.2 102.4 76.8V85.333333zM742.4 213.333333c29.866667 42.666667 51.2 98.133333 51.2 157.866667 0 59.733333-17.066667 115.2-51.2 157.866667-12.8 17.066667-21.333333 29.866667-38.4 42.666666-17.066667 17.066667-42.666667 12.8-59.733333-4.266666-17.066667-17.066667-12.8-42.666667 4.266666-59.733334l25.6-25.6c21.333333-29.866667 34.133333-68.266667 34.133334-106.666666 0-38.4-12.8-76.8-34.133334-106.666667-8.533333-8.533333-17.066667-21.333333-25.6-29.866667-17.066667-17.066667-17.066667-42.666667-4.266666-59.733333 17.066667-17.066667 42.666667-17.066667 59.733333-4.266667 12.8 8.533333 25.6 21.333333 38.4 38.4z"  horiz-adv-x="1024" />
      
      <glyph glyph-name="Messagelined" unicode="&#59627;" d="M896 768H128c-25.6 0-42.666667-17.066667-42.666667-42.666667v-669.866666c0-17.066667 8.533333-29.866667 21.333334-38.4 12.8-8.533333 29.866667-4.266667 42.666666 4.266666l162.133334 115.2H896c25.6 0 42.666667 17.066667 42.666667 42.666667V725.333333c0 25.6-17.066667 42.666667-42.666667 42.666667z m-42.666667-546.133333H298.666667c-8.533333 0-12.8 0-21.333334-4.266667v-4.266667L170.666667 136.533333V682.666667h682.666666v-460.8zM332.8 401.066667c29.866667 0 51.2 25.6 51.2 51.2 0 29.866667-25.6 55.466667-51.2 55.466666s-51.2-25.6-51.2-55.466666c0-25.6 25.6-51.2 51.2-51.2zM512 401.066667c29.866667 0 51.2 25.6 51.2 51.2 0 29.866667-25.6 55.466667-51.2 55.466666s-51.2-25.6-51.2-55.466666c0-25.6 21.333333-51.2 51.2-51.2zM691.2 401.066667c29.866667 0 51.2 25.6 51.2 51.2 0 29.866667-25.6 55.466667-51.2 55.466666s-51.2-25.6-51.2-55.466666c-4.266667-25.6 21.333333-51.2 51.2-51.2z"  horiz-adv-x="1024" />
      
      <glyph glyph-name="Explorefilled-nc" unicode="&#59622;" d="M426.847232 56.32c-20.48-20.48-20.48-46.08 5.12-56.32 5.12 0 5.12 0 10.24-5.12 25.6-5.12 56.32-10.24 87.04-10.24 209.92 0 378.88 168.96 378.88 378.88-61.44-20.48-353.28-158.72-481.28-307.2zM1020.767232 650.24c-10.24 30.72-148.48 20.48-184.32 5.12-5.12-5.12-5.12-10.24 0-10.24 30.72-5.12 66.56-5.12 76.8-25.6 0-10.24 0-30.72-40.96-66.56-61.44 133.12-194.56 225.28-348.16 225.28-209.92 0-378.88-168.96-378.88-384 0-61.44 15.36-117.76 35.84-163.84-5.12 0-10.24-5.12-15.36-5.12-71.68-20.48-76.8 5.12-76.8 15.36 0 0 0 25.6 35.84 71.68 5.12 5.12 5.12 10.24-5.12 5.12-51.2-20.48-133.12-107.52-117.76-148.48 10.24-30.72 61.44-35.84 148.48-20.48 25.6 5.12 35.84 10.24 66.56 15.36 102.4 25.6 230.4 76.8 358.4 128 128 56.32 235.52 122.88 317.44 184.32 5.12 5.12 15.36 10.24 20.48 15.36 81.92 76.8 117.76 128 107.52 158.72z"  horiz-adv-x="1025" />
      
      <glyph glyph-name="ScientificDatafilled-nc" unicode="&#59623;" d="M512 102.4c-225.28 0-409.6 66.56-409.6 148.48v-128c0-81.92 184.32-148.48 409.6-148.48s409.6 66.56 409.6 148.48v128c0-81.92-184.32-148.48-409.6-148.48zM512 276.48c-225.28 0-409.6 66.56-409.6 148.48v-128c0-81.92 184.32-148.48 409.6-148.48s409.6 66.56 409.6 148.48V424.96c0-81.92-184.32-148.48-409.6-148.48zM512 455.68c-225.28 0-409.6 66.56-409.6 148.48v-133.12c0-81.92 184.32-148.48 409.6-148.48s409.6 66.56 409.6 148.48V604.16c0-81.92-184.32-148.48-409.6-148.48zM102.4 645.12c0-40.96 40.96-76.8 117.76-102.4 76.8-25.6 184.32-40.96 291.84-40.96s215.04 15.36 291.84 40.96 117.76 66.56 117.76 102.4-40.96 76.8-117.76 102.4C727.04 778.24 619.52 793.6 512 793.6s-215.04-15.36-291.84-40.96C143.36 721.92 102.4 686.08 102.4 645.12z"  horiz-adv-x="1024" />
      
      <glyph glyph-name="Workbenchfilled-nc" unicode="&#59624;" d="M798.72 322.56H614.4c-20.48 0-40.96-10.24-56.32-25.6-15.36-15.36-25.6-35.84-25.6-56.32v-184.32c0-20.48 10.24-40.96 25.6-56.32 15.36-15.36 35.84-25.6 56.32-25.6h184.32c20.48 0 40.96 10.24 56.32 25.6 15.36 15.36 25.6 35.84 25.6 56.32v184.32c0 46.08-35.84 81.92-81.92 81.92zM368.64 757.76H184.32c-20.48 0-40.96-10.24-56.32-25.6-15.36-15.36-25.6-35.84-25.6-61.44V486.4c0-20.48 10.24-40.96 25.6-56.32 15.36-15.36 35.84-25.6 56.32-25.6h184.32c20.48 0 40.96 10.24 56.32 25.6 20.48 15.36 25.6 35.84 25.6 56.32V670.72c0 46.08-35.84 87.04-81.92 87.04zM368.64 322.56H184.32c-20.48 0-40.96-10.24-56.32-25.6-15.36-10.24-25.6-30.72-25.6-56.32v-184.32c0-20.48 10.24-40.96 25.6-56.32 15.36-15.36 35.84-25.6 56.32-25.6h184.32c20.48 0 40.96 10.24 56.32 25.6 15.36 15.36 25.6 35.84 25.6 56.32v184.32c0 46.08-35.84 81.92-81.92 81.92zM896 640L768 768c-5.12 5.12-15.36 15.36-25.6 15.36-15.36 10.24-25.6 10.24-35.84 10.24-10.24 0-20.48 0-30.72-5.12s-20.48-10.24-25.6-15.36L517.12 640c-5.12-10.24-10.24-15.36-15.36-25.6s-5.12-20.48-5.12-35.84c0-10.24 0-20.48 5.12-30.72 5.12-10.24 10.24-15.36 15.36-25.6l133.12-128c5.12-5.12 15.36-15.36 25.6-15.36 10.24-5.12 20.48-5.12 30.72-5.12 10.24 0 20.48 0 30.72 5.12 10.24 5.12 20.48 10.24 25.6 15.36l128 128c35.84 30.72 35.84 87.04 5.12 117.76z"  horiz-adv-x="1024" />
      
      <glyph glyph-name="Agentfilled-nc" unicode="&#59625;" d="M844.8 660.48l-261.12 153.6c-40.96 25.6-97.28 25.6-138.24 0l-261.12-153.6C138.24 634.88 112.64 588.8 112.64 537.6v-307.2c0-51.2 25.6-92.16 66.56-117.76l261.12-153.6c40.96-25.6 97.28-25.6 138.24 0l261.12 153.6c40.96 25.6 66.56 71.68 66.56 117.76V537.6c5.12 51.2-20.48 97.28-61.44 122.88z m-148.48-194.56l-153.6-97.28v-174.08c0-15.36-15.36-30.72-30.72-30.72s-30.72 15.36-30.72 30.72v174.08L322.56 465.92c-10.24 10.24-15.36 25.6-5.12 40.96 5.12 15.36 25.6 20.48 40.96 10.24l153.6-97.28 153.6 97.28c15.36 10.24 35.84 5.12 40.96-10.24 10.24-15.36 5.12-30.72-10.24-40.96z"  horiz-adv-x="1024" />
      
      <glyph glyph-name="SCP-nc" unicode="&#59621;" d="M890.88 168.96c-30.72-51.2-71.68-97.28-117.76-128-46.08-35.84-102.4-61.44-158.72-76.8-117.76-25.6-235.52-5.12-337.92 61.44v10.24l35.84 46.08h10.24c163.84-102.4 373.76-61.44 486.4 92.16l5.12 5.12h76.8v-10.24z m-665.6 10.24c35.84 0 61.44-25.6 61.44-61.44 0-20.48-10.24-40.96-30.72-51.2-10.24-5.12-20.48-10.24-30.72-10.24-10.24 0-20.48 5.12-30.72 10.24-20.48 10.24-30.72 30.72-30.72 51.2 0 35.84 25.6 61.44 61.44 61.44z m5.12 353.28c35.84 0 61.44-5.12 76.8-15.36 20.48-10.24 30.72-30.72 35.84-56.32v-5.12h-5.12l-56.32-10.24h-5.12v5.12c0 10.24-5.12 15.36-15.36 20.48-5.12 5.12-15.36 10.24-30.72 10.24s-30.72-5.12-35.84-5.12c-10.24-10.24-10.24-15.36-10.24-25.6 0-5.12 0-10.24 5.12-15.36 0 0 5.12-5.12 10.24-5.12 5.12-5.12 20.48-5.12 40.96-10.24 25.6-5.12 46.08-10.24 56.32-15.36 15.36-5.12 25.6-15.36 30.72-20.48 5.12-5.12 10.24-15.36 15.36-25.6 5.12-10.24 5.12-20.48 5.12-30.72 0-25.6-10.24-51.2-30.72-66.56-20.48-15.36-51.2-20.48-87.04-20.48s-61.44 5.12-81.92 20.48c-20.48 15.36-35.84 30.72-40.96 61.44v5.12h5.12l56.32 10.24h5.12v-5.12c5.12-15.36 10.24-20.48 20.48-25.6 10.24-5.12 25.6-10.24 40.96-10.24 20.48 0 30.72 5.12 40.96 10.24 10.24 5.12 10.24 10.24 10.24 20.48 0 5.12 0 10.24-5.12 15.36-5.12 5.12-10.24 10.24-15.36 10.24-5.12 5.12-20.48 5.12-46.08 10.24-20.48 5.12-35.84 10.24-40.96 10.24-15.36 5.12-20.48 10.24-30.72 10.24l-15.36 15.36c-5.12 10.24-10.24 15.36-10.24 20.48 0 10.24-5.12 15.36-5.12 25.6 0 25.6 10.24 46.08 30.72 61.44 20.48 15.36 46.08 25.6 81.92 25.6z m389.12-20.48c20.48 0 30.72-15.36 30.72-30.72v-20.48l-5.12-5.12H496.64c-15.36 0-30.72-5.12-30.72-10.24-5.12-10.24-10.24-20.48-10.24-30.72v-61.44c0-10.24 0-20.48 10.24-30.72 5.12-5.12 20.48-10.24 30.72-10.24h128c5.12 0 10.24 0 15.36-5.12 5.12-5.12 5.12-10.24 5.12-15.36v-25.6l-5.12-5.12-143.36-5.12c-40.96 0-61.44 5.12-81.92 20.48-15.36 20.48-25.6 56.32-25.6 76.8V414.72c0 30.72 10.24 56.32 30.72 71.68 15.36 15.36 40.96 25.6 81.92 25.6h117.76z m230.4 0c30.72 0 51.2-5.12 61.44-15.36h10.24l5.12-5.12c15.36-10.24 20.48-30.72 20.48-56.32v-30.72c0-30.72-5.12-46.08-20.48-56.32-15.36-15.36-35.84-20.48-66.56-20.48H768v-71.68l-5.12-5.12h-51.2l-5.12 5.12V486.4v10.24c0 5.12 5.12 10.24 5.12 10.24l5.12 5.12h133.12zM768 389.12h107.52s5.12 5.12 5.12 15.36V435.2c0 10.24 0 10.24-5.12 10.24H768v-56.32z m-368.64 409.6c107.52 30.72 225.28 15.36 322.56-35.84v-10.24l-35.84-46.08h-5.12c-158.72 81.92-353.28 35.84-460.8-107.52l-5.12-10.24H143.36l-5.12 10.24c56.32 97.28 153.6 168.96 261.12 199.68z m378.88-66.56c35.84 0 61.44-25.6 61.44-61.44s-25.6-61.44-61.44-61.44S716.8 634.88 716.8 670.72s25.6 61.44 61.44 61.44z"  horiz-adv-x="1024" />
      
      <glyph glyph-name="TipFilled" unicode="&#59620;" d="M904.533333 546.133333C883.2 597.333333 853.333333 644.266667 814.933333 686.933333c-38.4 38.4-85.333333 72.533333-136.533333 93.866667-55.466667 17.066667-110.933333 29.866667-166.4 29.866667-55.466667 0-110.933333-12.8-162.133333-34.133334C298.666667 755.2 251.733333 725.333333 209.066667 686.933333 170.666667 644.266667 140.8 597.333333 119.466667 546.133333 98.133333 494.933333 85.333333 439.466667 85.333333 384c0-55.466667 12.8-110.933333 34.133334-162.133333 21.333333-51.2 51.2-98.133333 89.6-140.8 38.4-38.4 85.333333-72.533333 136.533333-93.866667 55.466667-17.066667 110.933333-29.866667 166.4-29.866667 55.466667 0 110.933333 12.8 162.133333 34.133334C725.333333 12.8 772.266667 42.666667 810.666667 85.333333c38.4 38.4 72.533333 85.333333 93.866666 136.533334 21.333333 51.2 34.133333 106.666667 34.133334 162.133333 0 55.466667-12.8 110.933333-34.133334 162.133333zM554.666667 170.666667c0-12.8-4.266667-21.333333-12.8-29.866667-8.533333-8.533333-17.066667-12.8-29.866667-12.8-12.8 0-21.333333 4.266667-29.866667 12.8-8.533333 8.533333-12.8 17.066667-12.8 29.866667v277.333333c0 12.8 4.266667 21.333333 12.8 29.866667 8.533333 8.533333 17.066667 12.8 29.866667 12.8 12.8 0 21.333333-4.266667 29.866667-12.8 8.533333-8.533333 12.8-17.066667 12.8-29.866667V170.666667z m-4.266667 375.466666c-8.533333-8.533333-25.6-17.066667-38.4-17.066666-8.533333 0-12.8 0-21.333333 4.266666s-12.8 8.533333-17.066667 12.8c-4.266667 4.266667-8.533333 12.8-12.8 17.066667-4.266667 8.533333-4.266667 12.8-4.266667 21.333333s0 12.8 4.266667 21.333334 8.533333 12.8 12.8 17.066666c4.266667 4.266667 12.8 8.533333 17.066667 12.8 8.533333 0 12.8 4.266667 21.333333 4.266667 12.8 0 25.6-4.266667 38.4-17.066667 8.533333-8.533333 17.066667-25.6 17.066667-38.4s-8.533333-25.6-17.066667-38.4z"  horiz-adv-x="1024" />
      
      <glyph glyph-name="a-LanguageC" unicode="&#59619;" d="M768 435.2h-87.04l-189.44-471.04h92.16l51.2 128h174.08l51.2-128h92.16L768 435.2z m-97.28-256l51.2 133.12 51.2-133.12h-102.4zM215.04 225.28v-87.04c0-20.48 10.24-40.96 20.48-56.32 15.36-15.36 35.84-25.6 56.32-25.6h133.12v-87.04H296.96c-46.08 0-87.04 20.48-122.88 51.2-30.72 30.72-51.2 76.8-51.2 122.88V230.4h92.16zM727.04 737.28c46.08 0 87.04-20.48 122.88-51.2 30.72-30.72 51.2-76.8 51.2-122.88v-87.04h-87.04V563.2c0 20.48-10.24 46.08-25.6 61.44-20.48 15.36-40.96 25.6-61.44 25.6h-128V737.28h128zM343.04 680.96V768H256v-87.04H87.04V384H256v-128h87.04V384H512V680.96H343.04zM256 471.04H168.96V599.04H256v-128z m168.96 0H343.04V599.04h87.04v-128z"  horiz-adv-x="1024" />
      
      <glyph glyph-name="a-LanguageE" unicode="&#59618;" d="M215.04 225.28v-87.04c0-20.48 10.24-40.96 20.48-56.32 15.36-15.36 35.84-25.6 56.32-25.6h133.12v-87.04H296.96c-46.08 0-87.04 20.48-122.88 51.2-30.72 30.72-51.2 76.8-51.2 122.88V230.4h92.16zM727.04 737.28c46.08 0 87.04-20.48 122.88-51.2 30.72-30.72 51.2-76.8 51.2-122.88v-87.04h-87.04V563.2c0 20.48-10.24 46.08-25.6 61.44-20.48 15.36-40.96 25.6-61.44 25.6h-128V737.28h128zM768 435.2h-87.04l-189.44-471.04h92.16l51.2 128h174.08l51.2-128h92.16L768 435.2z m-97.28-256l51.2 133.12 51.2-133.12h-102.4zM343.04 680.96V768H256v-87.04H87.04V384H256v-128h87.04V384H512V680.96H343.04zM256 471.04H168.96V599.04H256v-128z m168.96 0H343.04V599.04h87.04v-128z"  horiz-adv-x="1024" />
      
      <glyph glyph-name="SCP" unicode="&#59617;" d="M890.88 168.96c-30.72-51.2-71.68-97.28-117.76-128-46.08-35.84-102.4-61.44-158.72-76.8-117.76-25.6-235.52-5.12-337.92 61.44v10.24l35.84 46.08h10.24c163.84-102.4 373.76-61.44 486.4 92.16l5.12 5.12h76.8v-10.24z m-665.6 10.24c35.84 0 61.44-25.6 61.44-61.44 0-20.48-10.24-40.96-30.72-51.2-10.24-5.12-20.48-10.24-30.72-10.24-10.24 0-20.48 5.12-30.72 10.24-20.48 10.24-30.72 30.72-30.72 51.2 0 35.84 25.6 61.44 61.44 61.44z m5.12 353.28c35.84 0 61.44-5.12 76.8-15.36 20.48-10.24 30.72-30.72 35.84-56.32v-5.12h-5.12l-56.32-10.24h-5.12v5.12c0 10.24-5.12 15.36-15.36 20.48-5.12 5.12-15.36 10.24-30.72 10.24s-30.72-5.12-35.84-5.12c-10.24-10.24-10.24-15.36-10.24-25.6 0-5.12 0-10.24 5.12-15.36 0 0 5.12-5.12 10.24-5.12 5.12-5.12 20.48-5.12 40.96-10.24 25.6-5.12 46.08-10.24 56.32-15.36 15.36-5.12 25.6-15.36 30.72-20.48 5.12-5.12 10.24-15.36 15.36-25.6 5.12-10.24 5.12-20.48 5.12-30.72 0-25.6-10.24-51.2-30.72-66.56-20.48-15.36-51.2-20.48-87.04-20.48s-61.44 5.12-81.92 20.48c-20.48 15.36-35.84 30.72-40.96 61.44v5.12h5.12l56.32 10.24h5.12v-5.12c5.12-15.36 10.24-20.48 20.48-25.6 10.24-5.12 25.6-10.24 40.96-10.24 20.48 0 30.72 5.12 40.96 10.24 10.24 5.12 10.24 10.24 10.24 20.48 0 5.12 0 10.24-5.12 15.36-5.12 5.12-10.24 10.24-15.36 10.24-5.12 5.12-20.48 5.12-46.08 10.24-20.48 5.12-35.84 10.24-40.96 10.24-15.36 5.12-20.48 10.24-30.72 10.24l-15.36 15.36c-5.12 10.24-10.24 15.36-10.24 20.48 0 10.24-5.12 15.36-5.12 25.6 0 25.6 10.24 46.08 30.72 61.44 20.48 15.36 46.08 25.6 81.92 25.6z m389.12-20.48c20.48 0 30.72-15.36 30.72-30.72v-20.48l-5.12-5.12H496.64c-15.36 0-30.72-5.12-30.72-10.24-5.12-10.24-10.24-20.48-10.24-30.72v-61.44c0-10.24 0-20.48 10.24-30.72 5.12-5.12 20.48-10.24 30.72-10.24h128c5.12 0 10.24 0 15.36-5.12 5.12-5.12 5.12-10.24 5.12-15.36v-25.6l-5.12-5.12-143.36-5.12c-40.96 0-61.44 5.12-81.92 20.48-15.36 20.48-25.6 56.32-25.6 76.8V414.72c0 30.72 10.24 56.32 30.72 71.68 15.36 15.36 40.96 25.6 81.92 25.6h117.76z m230.4 0c30.72 0 51.2-5.12 61.44-15.36h10.24l5.12-5.12c15.36-10.24 20.48-30.72 20.48-56.32v-30.72c0-30.72-5.12-46.08-20.48-56.32-15.36-15.36-35.84-20.48-66.56-20.48H768v-71.68l-5.12-5.12h-51.2l-5.12 5.12V486.4v10.24c0 5.12 5.12 10.24 5.12 10.24l5.12 5.12h133.12zM768 389.12h107.52s5.12 5.12 5.12 15.36V435.2c0 10.24 0 10.24-5.12 10.24H768v-56.32z m-368.64 409.6c107.52 30.72 225.28 15.36 322.56-35.84v-10.24l-35.84-46.08h-5.12c-158.72 81.92-353.28 35.84-460.8-107.52l-5.12-10.24H143.36l-5.12 10.24c56.32 97.28 153.6 168.96 261.12 199.68z m378.88-66.56c35.84 0 61.44-25.6 61.44-61.44s-25.6-61.44-61.44-61.44S716.8 634.88 716.8 670.72s25.6 61.44 61.44 61.44z"  horiz-adv-x="1024" />
      
      <glyph glyph-name="FilterFoldoutlined" unicode="&#59615;" d="M896 128c25.6 0 42.666667-17.066667 42.666667-42.666667s-17.066667-42.666667-42.666667-42.666666H128c-25.6 0-42.666667 17.066667-42.666667 42.666666s17.066667 42.666667 42.666667 42.666667h768zM243.2 503.466667c25.6 17.066667 64 0 64-34.133334v-170.666666c0-34.133333-38.4-51.2-64-34.133334l-132.266667 85.333334c-25.6 17.066667-25.6 51.2 0 68.266666l132.266667 85.333334zM896 426.666667c25.6 0 42.666667-17.066667 42.666667-42.666667s-17.066667-42.666667-42.666667-42.666667H426.666667c-25.6 0-42.666667 17.066667-42.666667 42.666667s17.066667 42.666667 42.666667 42.666667h469.333333z m0 298.666666c25.6 0 42.666667-17.066667 42.666667-42.666666s-17.066667-42.666667-42.666667-42.666667H128c-25.6 0-42.666667 17.066667-42.666667 42.666667s17.066667 42.666667 42.666667 42.666666h768z"  horiz-adv-x="1024" />
      
      <glyph glyph-name="FilterUnfoldoutlined" unicode="&#59616;" d="M896 128c25.6 0 42.666667-17.066667 42.666667-42.666667s-17.066667-42.666667-42.666667-42.666666H128c-25.6 0-42.666667 17.066667-42.666667 42.666666s17.066667 42.666667 42.666667 42.666667h768zM93.866667 469.333333c0 34.133333 38.4 51.2 64 34.133334l132.266666-85.333334c25.6-17.066667 25.6-51.2 0-68.266666l-132.266666-85.333334c-25.6-17.066667-64 0-64 34.133334v170.666666zM896 426.666667c25.6 0 42.666667-17.066667 42.666667-42.666667s-17.066667-42.666667-42.666667-42.666667H426.666667c-25.6 0-42.666667 17.066667-42.666667 42.666667s17.066667 42.666667 42.666667 42.666667h469.333333z m0 298.666666c25.6 0 42.666667-17.066667 42.666667-42.666666s-17.066667-42.666667-42.666667-42.666667H128c-25.6 0-42.666667 17.066667-42.666667 42.666667s17.066667 42.666667 42.666667 42.666666h768z"  horiz-adv-x="1024" />
      
      <glyph glyph-name="CSV" unicode="&#59608;" d="M622.933333 810.666667c11.377778 0 22.755556-5.688889 31.288889-11.377778l190.577778-190.577778c8.533333-8.533333 11.377778-19.911111 11.377778-31.288889v-577.422222c0-22.755556-19.911111-42.666667-42.666667-42.666667h-597.333333c-22.755556 0-42.666667 19.911111-42.666667 42.666667v768c0 22.755556 19.911111 42.666667 42.666667 42.666667h406.755555zM625.777778 810.666667c11.377778 0 22.755556-5.688889 31.288889-11.377778l187.733333-187.733333c8.533333-8.533333 11.377778-19.911111 11.377778-31.288889v-2.844445c0 11.377778-8.533333 22.755556-22.755556 22.755556h-156.444444c-19.911111 0-36.977778 17.066667-36.977778 36.977778V787.911111c0 11.377778-8.533333 22.755556-22.755556 22.755556h8.533334zM617.244444 270.222222l42.666667-105.244444 42.666667 105.244444h48.355555l-71.111111-170.666666h-34.133333L568.888889 270.222222h48.355555zM534.755556 227.555556c-5.688889 2.844444-8.533333 5.688889-14.222223 8.533333-5.688889 2.844444-8.533333 2.844444-14.222222 2.844444s-11.377778 0-14.222222-2.844444c-2.844444-2.844444-5.688889-5.688889-5.688889-11.377778 0-2.844444 0-5.688889 2.844444-8.533333l5.688889-5.688889c2.844444 0 5.688889-2.844444 11.377778-2.844445 2.844444 0 8.533333-2.844444 11.377778-2.844444 14.222222-5.688889 25.6-11.377778 31.288889-19.911111 5.688889-8.533333 11.377778-19.911111 11.377778-31.288889 0-8.533333-2.844444-17.066667-5.688889-22.755556-2.844444-8.533333-8.533333-14.222222-14.222223-17.066666-5.688889-5.688889-11.377778-8.533333-19.911111-11.377778-8.533333-2.844444-17.066667-5.688889-28.444444-5.688889-22.755556 0-42.666667 5.688889-59.733333 19.911111l19.911111 36.977778c5.688889-5.688889 14.222222-11.377778 19.911111-14.222222 5.688889-2.844444 14.222222-5.688889 19.911111-5.688889 8.533333 0 11.377778 2.844444 17.066667 5.688889 2.844444 2.844444 5.688889 8.533333 5.688888 11.377778V156.444444c0 2.844444-2.844444 2.844444-5.688888 5.688889s-5.688889 2.844444-8.533334 5.688889c-2.844444 0-8.533333 2.844444-11.377778 5.688889-5.688889 2.844444-11.377778 2.844444-17.066666 5.688889-5.688889 2.844444-11.377778 5.688889-14.222222 8.533333-2.844444 2.844444-8.533333 8.533333-11.377778 14.222223-2.844444 5.688889-2.844444 11.377778-2.844445 19.911111s0 17.066667 2.844445 22.755555c2.844444 5.688889 5.688889 14.222222 11.377778 17.066667 5.688889 5.688889 11.377778 8.533333 19.911111 11.377778 8.533333 2.844444 17.066667 2.844444 25.6 2.844444 8.533333 0 17.066667 0 25.6-2.844444 8.533333-2.844444 17.066667-5.688889 25.6-11.377778l-19.911111-34.133333zM412.444444 213.333333c-11.377778 11.377778-22.755556 19.911111-36.977777 19.911111-5.688889 0-14.222222 0-19.911111-2.844444-5.688889-2.844444-11.377778-5.688889-14.222223-11.377778-2.844444-2.844444-8.533333-8.533333-8.533333-14.222222-2.844444-5.688889-2.844444-11.377778-2.844444-19.911111 0-5.688889 0-14.222222 2.844444-19.911111 2.844444-5.688889 5.688889-11.377778 8.533333-14.222222 2.844444-2.844444 8.533333-8.533333 14.222223-11.377778s11.377778-2.844444 17.066666-2.844445c14.222222 0 28.444444 5.688889 39.822222 17.066667V99.555556l-5.688888-2.844445c-5.688889-2.844444-14.222222-2.844444-19.911112-5.688889-5.688889 0-11.377778-2.844444-17.066666-2.844444-11.377778 0-22.755556 2.844444-34.133334 5.688889-11.377778 5.688889-19.911111 11.377778-28.444444 19.911111-8.533333 8.533333-14.222222 17.066667-19.911111 28.444444-5.688889 11.377778-8.533333 22.755556-8.533333 36.977778s2.844444 25.6 8.533333 36.977778c5.688889 11.377778 11.377778 19.911111 19.911111 28.444444 8.533333 8.533333 17.066667 14.222222 28.444444 19.911111 11.377778 5.688889 22.755556 5.688889 34.133334 5.688889 5.688889 0 14.222222 0 19.911111-2.844444 5.688889 0 14.222222-2.844444 19.911111-5.688889V213.333333z"  horiz-adv-x="1024" />
      
      <glyph glyph-name="Prohibitlined" unicode="&#59609;" d="M512 810.666667C277.333333 810.666667 85.333333 618.666667 85.333333 384s192-426.666667 426.666667-426.666667 426.666667 192 426.666667 426.666667S746.666667 810.666667 512 810.666667z m0-768c-187.733333 0-341.333333 153.6-341.333333 341.333333 0 76.8 25.6 149.333333 72.533333 209.066667l477.866667-477.866667C661.333333 68.266667 588.8 42.666667 512 42.666667z m268.8 132.266666L302.933333 652.8C362.666667 699.733333 435.2 725.333333 512 725.333333c187.733333 0 341.333333-153.6 341.333333-341.333333 0-76.8-25.6-149.333333-72.533333-209.066667z"  horiz-adv-x="1024" />
      
      <glyph glyph-name="Explorefilled" unicode="&#59610;" d="M426.847232 56.32c-20.48-20.48-20.48-46.08 5.12-56.32 5.12 0 5.12 0 10.24-5.12 25.6-5.12 56.32-10.24 87.04-10.24 209.92 0 378.88 168.96 378.88 378.88-61.44-20.48-353.28-158.72-481.28-307.2zM1020.767232 650.24c-10.24 30.72-148.48 20.48-184.32 5.12-5.12-5.12-5.12-10.24 0-10.24 30.72-5.12 66.56-5.12 76.8-25.6 0-10.24 0-30.72-40.96-66.56-61.44 133.12-194.56 225.28-348.16 225.28-209.92 0-378.88-168.96-378.88-384 0-61.44 15.36-117.76 35.84-163.84-5.12 0-10.24-5.12-15.36-5.12-71.68-20.48-76.8 5.12-76.8 15.36 0 0 0 25.6 35.84 71.68 5.12 5.12 5.12 10.24-5.12 5.12-51.2-20.48-133.12-107.52-117.76-148.48 10.24-30.72 61.44-35.84 148.48-20.48 25.6 5.12 35.84 10.24 66.56 15.36 102.4 25.6 230.4 76.8 358.4 128 128 56.32 235.52 122.88 317.44 184.32 5.12 5.12 15.36 10.24 20.48 15.36 81.92 76.8 117.76 128 107.52 158.72z"  horiz-adv-x="1025" />
      
      <glyph glyph-name="Share" unicode="&#59611;" d="M861.866667 563.2l-281.6 192c-25.6 17.066667-55.466667 17.066667-81.066667 4.266667-25.6-12.8-42.666667-42.666667-42.666667-72.533334v-64c-281.6-25.6-354.133333-354.133333-324.266666-584.533333 4.266667-21.333333 21.333333-38.4 38.4-38.4s34.133333 8.533333 38.4 25.6c42.666667 119.466667 102.4 281.6 238.933333 315.733333 0-42.666667 0-85.333333 42.666667-106.666666 25.6-12.8 55.466667-12.8 81.066666 4.266666l281.6 192c29.866667 12.8 42.666667 38.4 42.666667 64s-12.8 51.2-34.133333 68.266667z m-324.266667-251.733333v136.533333c-132.266667-34.133333-238.933333-72.533333-315.733333-192 21.333333 136.533333 85.333333 268.8 238.933333 285.866667l76.8 8.533333v128l268.8-183.466667-268.8-183.466666z"  horiz-adv-x="1024" />
      
      <glyph glyph-name="Workbenchfilled" unicode="&#59612;" d="M798.72 322.56H614.4c-20.48 0-40.96-10.24-56.32-25.6-15.36-15.36-25.6-35.84-25.6-56.32v-184.32c0-20.48 10.24-40.96 25.6-56.32 15.36-15.36 35.84-25.6 56.32-25.6h184.32c20.48 0 40.96 10.24 56.32 25.6 15.36 15.36 25.6 35.84 25.6 56.32v184.32c0 46.08-35.84 81.92-81.92 81.92zM368.64 757.76H184.32c-20.48 0-40.96-10.24-56.32-25.6-15.36-15.36-25.6-35.84-25.6-61.44V486.4c0-20.48 10.24-40.96 25.6-56.32 15.36-15.36 35.84-25.6 56.32-25.6h184.32c20.48 0 40.96 10.24 56.32 25.6 20.48 15.36 25.6 35.84 25.6 56.32V670.72c0 46.08-35.84 87.04-81.92 87.04zM368.64 322.56H184.32c-20.48 0-40.96-10.24-56.32-25.6-15.36-10.24-25.6-30.72-25.6-56.32v-184.32c0-20.48 10.24-40.96 25.6-56.32 15.36-15.36 35.84-25.6 56.32-25.6h184.32c20.48 0 40.96 10.24 56.32 25.6 15.36 15.36 25.6 35.84 25.6 56.32v184.32c0 46.08-35.84 81.92-81.92 81.92zM896 640L768 768c-5.12 5.12-15.36 15.36-25.6 15.36-15.36 10.24-25.6 10.24-35.84 10.24-10.24 0-20.48 0-30.72-5.12s-20.48-10.24-25.6-15.36L517.12 640c-5.12-10.24-10.24-15.36-15.36-25.6s-5.12-20.48-5.12-35.84c0-10.24 0-20.48 5.12-30.72 5.12-10.24 10.24-15.36 15.36-25.6l133.12-128c5.12-5.12 15.36-15.36 25.6-15.36 10.24-5.12 20.48-5.12 30.72-5.12 10.24 0 20.48 0 30.72 5.12 10.24 5.12 20.48 10.24 25.6 15.36l128 128c35.84 30.72 35.84 87.04 5.12 117.76z"  horiz-adv-x="1024" />
      
      <glyph glyph-name="ScientificDatafilled" unicode="&#59613;" d="M512 102.4c-225.28 0-409.6 66.56-409.6 148.48v-128c0-81.92 184.32-148.48 409.6-148.48s409.6 66.56 409.6 148.48v128c0-81.92-184.32-148.48-409.6-148.48zM512 276.48c-225.28 0-409.6 66.56-409.6 148.48v-128c0-81.92 184.32-148.48 409.6-148.48s409.6 66.56 409.6 148.48V424.96c0-81.92-184.32-148.48-409.6-148.48zM512 455.68c-225.28 0-409.6 66.56-409.6 148.48v-133.12c0-81.92 184.32-148.48 409.6-148.48s409.6 66.56 409.6 148.48V604.16c0-81.92-184.32-148.48-409.6-148.48zM102.4 645.12c0-40.96 40.96-76.8 117.76-102.4 76.8-25.6 184.32-40.96 291.84-40.96s215.04 15.36 291.84 40.96 117.76 66.56 117.76 102.4-40.96 76.8-117.76 102.4C727.04 778.24 619.52 793.6 512 793.6s-215.04-15.36-291.84-40.96C143.36 721.92 102.4 686.08 102.4 645.12z"  horiz-adv-x="1024" />
      
      <glyph glyph-name="Agentfilled" unicode="&#59614;" d="M844.8 660.48l-261.12 153.6c-40.96 25.6-97.28 25.6-138.24 0l-261.12-153.6C138.24 634.88 112.64 588.8 112.64 537.6v-307.2c0-51.2 25.6-92.16 66.56-117.76l261.12-153.6c40.96-25.6 97.28-25.6 138.24 0l261.12 153.6c40.96 25.6 66.56 71.68 66.56 117.76V537.6c5.12 51.2-20.48 97.28-61.44 122.88z m-148.48-194.56l-153.6-97.28v-174.08c0-15.36-15.36-30.72-30.72-30.72s-30.72 15.36-30.72 30.72v174.08L322.56 465.92c-10.24 10.24-15.36 25.6-5.12 40.96 5.12 15.36 25.6 20.48 40.96 10.24l153.6-97.28 153.6 97.28c15.36 10.24 35.84 5.12 40.96-10.24 10.24-15.36 5.12-30.72-10.24-40.96z"  horiz-adv-x="1024" />
      
      <glyph glyph-name="Ratedoutlined" unicode="&#59321;" d="M511.83 784.555a40.391 40.391 0 0 0 36.238-22.358l108.032-217.6 240.98-35.27a40.334 40.334 0 0 0 22.358-68.666l-175.331-171.52 41.7-238.535a40.277 40.277 0 0 0-58.653-42.496L511.886 102.855 296.846-11.89a40.334 40.334 0 0 0-58.652 42.553l41.87 238.365L104.562 440.66a40.334 40.334 0 0 0 22.414 68.722l242.233 35.214 106.61 217.43 2.844 4.949a40.277 40.277 0 0 0 33.166 17.636z m-79.588-294.571a40.334 40.334 0 0 0-30.379-22.187l-182.67-26.453 132.437-129.48a40.391 40.391 0 0 0 11.549-35.84l-31.29-177.834L493 184.092l4.551 2.048a40.277 40.277 0 0 0 33.337-2.048l161.28-85.959-31.061 177.949a40.391 40.391 0 0 0 11.548 35.726l132.267 129.593-181.362 26.396a40.391 40.391 0 0 0-30.265 22.016l-81.123 163.385-79.93-163.27zM565.305 431.844a40.277 40.277 0 0 0 67.186-44.43L541.07 249.06a40.391 40.391 0 0 0-55.809-11.378l-73.273 48.47a40.391 40.391 0 0 0 44.487 67.185l39.595-26.169 69.234 104.676z"  horiz-adv-x="1024" />
      
      <glyph glyph-name="MindCanvasOutlined" unicode="&#59322;" d="M216.704 797.568c55.04 0 101.12-37.696 114.24-88.64H571.2c16.32 0 29.44-13.248 29.44-29.568v-265.792h92.48a118.144 118.144 0 1 0 0-59.136h-92.416V88.64a29.568 29.568 0 0 0-29.504-29.568H330.88A118.016 118.016 0 0 0 98.432 88.64a118.08 118.08 0 1 0 232.448 29.44h210.688V354.496H330.88A118.016 118.016 0 0 0 98.496 384a118.08 118.08 0 1 0 232.448 29.568h210.688V649.792H330.88A118.016 118.016 0 0 0 98.432 679.36c0 65.28 52.928 118.208 118.208 118.208z m0-649.856a59.072 59.072 0 1 1 0-118.144 59.072 59.072 0 0 1 0 118.144z m0 295.36a59.072 59.072 0 1 1 0-118.144 59.072 59.072 0 0 1 0 118.144z m590.72 0a59.072 59.072 0 1 1 0-118.08 59.072 59.072 0 0 1 0 118.08z m-590.72 295.36a59.072 59.072 0 1 1 0-118.08 59.072 59.072 0 0 1 0 118.08z"  horiz-adv-x="1024" />
      
      <glyph glyph-name="Puyu_AttachmentOutlined1" unicode="&#59323;" d="M386.617 685.284a170.667 170.667 0 0 0 341.333 0V151.95a234.667 234.667 0 1 0-469.333 0v448a42.667 42.667 0 0 0 85.333 0v-448a149.333 149.333 0 1 1 298.667 0V685.284a85.333 85.333 0 1 1-170.667 0V151.95a21.333 21.333 0 1 1 42.667 0V599.893a42.667 42.667 0 1 0 85.333 0V151.95c0-58.937-47.786-106.666-106.666-106.666m0 0A106.667 106.667 0 0 0 386.617 151.95V685.284"  horiz-adv-x="1024" />
      
      <glyph glyph-name="fileOutlined" unicode="&#59324;" d="M886.016 826.41h-669.27a98.005 98.005 0 0 1-98.005-98.133v-688.512c0-54.186 43.862-98.133 98.006-98.133h662.186a26.752 26.752 0 0 1 18.56 7.51 25.344 25.344 0 0 1 7.68 18.047V807.723a18.56 18.56 0 0 1-5.674 13.141 19.627 19.627 0 0 1-13.526 5.547z m-655.19-54.186h194.006v-359.296l-80.64 58.325-13.653 9.984-13.952-9.642-85.632-59.904-0.128 360.576z m625.11-781.312H216.661s-49.92 8.533-48.896 49.195c0 24.533 21.974 49.109 48.896 49.109H855.98v-98.304z"  horiz-adv-x="1024" />
      
      <glyph glyph-name="Outlinedclose" unicode="&#59325;" d="M688.768 776.256c21.632 0 39.232-17.6 39.232-39.232V599.68h137.28a39.296 39.296 0 0 0 0-78.464H728v-274.56h137.28a39.296 39.296 0 0 0 0-78.464h-82.112l64.896-64.896a39.296 39.296 0 0 0-55.488-55.488L728 112.384v-81.472a39.296 39.296 0 0 0-78.528 0V168.32H375.04v-137.28a39.296 39.296 0 0 0-78.464 0V168.32H159.232a39.296 39.296 0 0 0 0 78.464h137.28v274.56h-137.28a39.296 39.296 0 0 0 0 78.464h81.472l-36.48 36.48a39.296 39.296 0 0 0 55.552 55.488l36.736-36.8v82.048a39.296 39.296 0 0 0 78.464 0V599.68h274.56V737.024c0 21.632 17.536 39.232 39.232 39.232zM374.976 246.72h218.688L375.04 465.408V246.72z m274.56 55.232V521.28H430.144l219.264-219.328z"  horiz-adv-x="1024" />
      
      <glyph glyph-name="createnewfiled" unicode="&#59326;" d="M511.772 798.777a414.72 414.72 0 0 0 11.606-829.326l-11.606-0.171H174.535a41.472 41.472 0 0 0-34.475 64.512l26.738 40.164 6.372 11.32 5.12 10.013 2.218 4.551 3.414 8.021c3.754 9.956 4.494 16.498 2.048 19.627A414.72 414.72 0 0 0 511.83 798.777z m0-215.325c-26.567 0-39.936-13.312-39.936-39.879v-119.75h-119.75c-26.568 0-39.823-13.313-39.823-39.88s13.255-39.879 39.822-39.879h119.751V224.37c0-26.567 13.37-39.822 39.936-39.822 26.568 0 39.88 13.255 39.88 39.822V344.178h119.637c26.567 0 39.822 13.312 39.879 39.879 0 26.567-13.312 39.879-39.88 39.879H551.653V543.573c0 26.567-13.312 39.823-39.823 39.823z"  horiz-adv-x="1024" />
      
      <glyph glyph-name="RatingOutlined" unicode="&#59327;" d="M511.659 784.555a40.391 40.391 0 0 0 36.181-22.415l108.032-217.6 40.562-5.916a40.334 40.334 0 0 0-11.606-79.815l-61.44 8.988a40.391 40.391 0 0 0-30.321 21.96L512 653.14l-79.986-163.214a40.391 40.391 0 0 0-30.378-22.187l-182.614-26.396 132.38-129.536a40.391 40.391 0 0 0 11.55-35.84l-31.29-177.778 161.166 85.902 4.552 1.992a40.334 40.334 0 0 0 33.336-2.048l161.28-85.903-14.79 84.879a40.277 40.277 0 0 0 79.36 13.824l29.013-166.23a40.277 40.277 0 0 0-58.653-42.496l-215.21 114.745-215.04-114.745a40.391 40.391 0 0 0-58.71 42.553l41.927 238.365L104.391 440.66a40.391 40.391 0 0 0 22.357 68.722l242.233 35.157 106.61 217.487 2.845 4.892a40.334 40.334 0 0 0 33.223 17.636zM826.596 540.501a40.334 40.334 0 0 0 57.06-57.002l-256-256a40.334 40.334 0 0 0-57.004 57.002l256 256z"  horiz-adv-x="1024" />
      
      <glyph glyph-name="MultimodalOutlined3" unicode="&#59328;" d="M185.003 703.019c-44.203 0-80-35.84-80-80V309.76c0-44.16 35.84-80 80-80h337.493c44.16 0 79.957 35.84 79.957 80V623.019c0 44.16-35.84 80-80 80H184.96z m337.493-76.8c1.707 0 3.157-1.451 3.157-3.2V309.76a3.2 3.2 0 0 0-3.2-3.2H184.96a3.2 3.2 0 0 0-3.157 3.2V623.019c0 1.749 1.45 3.2 3.2 3.2h337.493zM767.787 451.03l31.658-30.123c17.067-16.214 17.067-42.582 0-58.838-17.066-16.213-44.8-16.213-61.866 0L633.899 460.8a40.192 40.192 0 0 0 0 58.795l107.477 102.272c17.067 16.213 44.757 16.213 61.824 0 17.067-16.256 17.067-42.582 0-58.838l-28.075-26.666h63.616a122.667 122.667 0 0 0 122.667-122.667v-268.8a122.667 122.667 0 0 0-122.667-122.667H391.552A122.667 122.667 0 0 0 268.8 144.896v60.8h85.333v-60.8c0-20.608 16.726-37.333 37.334-37.333h447.189a37.333 37.333 0 0 1 37.333 37.333v268.8a37.333 37.333 0 0 1-37.333 37.333h-70.912z"  horiz-adv-x="1024" />
      
      <glyph glyph-name="OutlinedOpen" unicode="&#59329;" d="M688.768 776.256c21.632 0 39.232-17.6 39.232-39.232V599.68h137.28a39.296 39.296 0 0 0 0-78.464H728v-274.56h137.28a39.296 39.296 0 0 0 0-78.464H728v-137.28a39.296 39.296 0 0 0-78.528 0V168.32H375.04v-137.28a39.296 39.296 0 0 0-78.464 0V168.32H159.232a39.296 39.296 0 0 0 0 78.464h137.28v274.56h-137.28a39.296 39.296 0 0 0 0 78.464h137.28V737.024a39.296 39.296 0 0 0 78.464 0V599.68h274.56V737.024c0 21.632 17.536 39.232 39.232 39.232zM374.976 246.72h274.56V521.28h-274.56v-274.56z"  horiz-adv-x="1024" />
      
      <glyph glyph-name="InanalysisOutlined" unicode="&#59330;" d="M598.016 692.326c0-41.779-32.46-75.622-72.448-75.622-39.936 0-72.397 33.843-72.397 75.622 0 41.78 32.41 75.674 72.397 75.674 39.987 0 72.397-33.894 72.397-75.674z m-72.448-559.923c-34.97 0-63.334-29.645-63.334-66.201S490.598 0 525.568 0s63.334 29.645 63.334 66.202-28.364 66.201-63.334 66.201z m299.571 199.578c-24.985 0-45.26 21.145-45.26 47.309 0 26.112 20.275 47.257 45.26 47.257S870.4 405.402 870.4 379.29s-20.275-47.31-45.26-47.31zM298.394 379.29c0 41.779-32.41 75.622-72.397 75.622-39.936 0-72.397-33.843-72.397-75.622 0-41.78 32.41-75.674 72.397-75.674 39.987 0 72.397 33.894 72.397 75.674z m66.56 274.841a78.08 78.08 0 0 0 0-107.008 70.195 70.195 0 0 0-102.4 0 78.08 78.08 0 0 0 0 107.008 70.195 70.195 0 0 0 102.4 0z m334.08-456.14a58.573 58.573 0 0 1 0-80.231 52.634 52.634 0 0 1 76.8 0 58.573 58.573 0 0 1 0 80.23 52.634 52.634 0 0 1-76.8 0z m64 375.91a35.123 35.123 0 0 0-51.2 0 39.014 39.014 0 0 0 0 53.504 36.096 36.096 0 0 0 25.6 11.059 34.816 34.816 0 0 0 25.6-11.06 39.066 39.066 0 0 0 0-53.503z m-398.08-362.496a70.195 70.195 0 0 1-102.4 0 78.08 78.08 0 0 1 0-107.008 70.195 70.195 0 0 1 102.4 0 78.08 78.08 0 0 1 0 107.008z"  horiz-adv-x="1024" />
      
      <glyph glyph-name="PDFoutlined" unicode="&#59331;" d="M645.12 809.856c7.936-1.536 15.36-5.248 21.312-10.88l190.72-181.44c8.448-8 13.248-19.2 13.248-30.848V0a42.688 42.688 0 0 0-42.688-42.688h-614.4A42.688 42.688 0 0 0 170.624 0V768c0 23.552 19.136 42.688 42.688 42.688h423.744l8.064-0.832zM256 42.688h529.088V512H597.312a42.688 42.688 0 0 0-42.688 42.688V725.312H256v-682.624z m384 554.624h114.624L640 706.304v-108.992zM551.296 448c38.848 0 69.12-8.192 89.856-25.728C662.016 404.48 672 378.112 672 344.384c0-33.984-10.112-60.608-31.104-78.528-20.864-17.728-51.456-26.048-90.496-26.048h-76.544v-124.544h-61.632V448h139.072z m-77.44-153.664h73.408c23.616 0 39.36 4.352 48.832 11.968 8.832 7.424 14.208 19.648 14.208 38.08 0 18.56-5.44 30.528-14.336 36.928l-0.256 0.192c-9.6 7.68-25.28 12.032-48.448 12.032h-73.408V294.4z"  horiz-adv-x="1024" />
      
      <glyph glyph-name="DislikeFilled1" unicode="&#59332;" d="M573.317 55.378a77.332 77.332 0 0 0-67.584-39.65h-4.26a118.252 118.252 0 0 0-83.476 34.448 134.226 134.226 0 0 0-38.994 83.886l-1.639 19.66a394.035 394.035 0 0 0 8.766 121.652l1.638 7.127H215.122a80.65 80.65 0 0 0-77.701 102.564l95.805 337.92a80.691 80.691 0 0 0 77.66 58.737h463.668a80.691 80.691 0 0 0 80.69-80.65v-352.38c0-29.573-16.178-56.688-42.106-70.82m0 0L694.354 213.28a185.795 185.795 0 0 1-73.564-72.745l-47.432-85.115"  horiz-adv-x="1024" />
      
      <glyph glyph-name="yonghuguanli1" unicode="&#59311;" d="M213.163 618.667a192 192 0 1 1 384 0 192 192 0 0 1-384 0z m192 106.666a106.667 106.667 0 1 0 0-213.333 106.667 106.667 0 0 0 0 213.333z m253.61 43.435a42.667 42.667 0 0 0 58.582 14.507 191.915 191.915 0 0 0 93.013-164.523c0-69.888-37.376-130.987-93.013-164.565a42.667 42.667 0 0 0-44.032 73.088 106.581 106.581 0 0 1 51.712 91.477c0 38.741-20.651 72.704-51.712 91.435a42.667 42.667 0 0 0-14.507 58.581zM454.101 341.419h-97.536c-46.25 0-83.541 0-113.749-2.475-31.061-2.56-58.41-7.893-83.67-20.779A213.333 213.333 0 0 1 65.92 224.94c-12.885-25.259-18.261-52.608-20.779-83.67-2.474-30.208-2.474-67.498-2.474-113.749v-27.435a42.667 42.667 0 0 1 42.666-42.666h640A42.667 42.667 0 0 1 768 0.085V27.52c0 46.25 0 83.541-2.475 113.75-2.56 31.06-7.893 58.41-20.778 83.626a213.333 213.333 0 0 1-93.227 93.27c-25.259 12.885-52.565 18.26-83.67 20.778-30.207 2.475-67.498 2.475-113.749 2.475z m-256.213-99.286c11.221 5.718 26.07 9.643 51.883 11.776 26.325 2.134 60.16 2.176 108.629 2.176h93.867c48.512 0 82.304 0 108.629-2.176 25.813-2.133 40.661-6.058 51.883-11.776a128 128 0 0 0 55.936-55.936c5.717-11.264 9.642-26.069 11.776-51.882 1.877-23.126 2.133-52.054 2.133-91.563H128c0 39.552 0.299 68.437 2.176 91.563 2.133 25.813 6.059 40.661 11.776 51.882a128 128 0 0 0 55.936 55.936zM807.339 299.35a42.667 42.667 0 0 0 57.386 18.645 213.333 213.333 0 0 0 93.227-93.227c12.843-25.259 18.219-52.565 20.779-83.67 2.474-30.207 2.474-67.498 2.474-113.749v-27.434a42.667 42.667 0 1 0-85.333 0v25.6c0 48.512-0.043 82.346-2.219 108.629-2.133 25.813-6.016 40.661-11.733 51.883m-74.581 113.322a42.667 42.667 0 0 1 18.602-57.386l-18.602 57.386z m18.602-57.386a128 128 0 0 0 55.979-55.894M866.347 209.707l-59.008 89.685 18.602-57.387a128 128 0 0 0 40.406-32.298z m0 0c5.973-7.254 11.221-15.147 15.573-23.638l-15.573 23.638z"  horiz-adv-x="1024" />
      
      <glyph glyph-name="WaitingOutlined" unicode="&#59312;" d="M594.842 193.024a40.96 40.96 0 0 0 0-81.92H429.158a40.96 40.96 0 1 0 0 81.92h165.684z m-33.178 381.03a40.96 40.96 0 1 0 0-81.92h-99.328a40.96 40.96 0 1 0 0 81.92h99.328zM793.651 756.275a40.96 40.96 0 1 0-0.051-81.92h-33.075c-21.658-96.921-49.715-174.438-85.76-229.888A266.24 266.24 0 0 0 622.08 384c19.558-16.18 37.069-36.66 52.685-60.62 36.045-55.45 64.102-132.916 85.76-229.786h33.126a40.96 40.96 0 0 0 0-81.92H230.35a40.96 40.96 0 1 0 0 81.92h33.126c21.709 96.972 49.715 174.49 85.76 229.939a266.24 266.24 0 0 0 52.685 60.518 266.752 266.752 0 0 0-52.736 60.519c-35.994 55.45-64 132.915-85.709 229.836h-33.177a40.96 40.96 0 0 0 0.05 81.92h563.303zM511.95 343.04c-31.437 0-62.925-16.282-94.003-64.102-26.727-41.114-50.535-102.196-70.35-185.293h328.807c-19.814 82.944-43.622 144.025-70.349 185.139-31.078 47.82-62.617 64.256-94.105 64.256zM347.597 674.458c19.814-82.944 43.622-144.077 70.349-185.19 31.078-47.924 62.617-64.308 94.105-64.308 31.437 0 62.976 16.384 94.003 64.154 26.727 41.113 50.535 102.246 70.35 185.292H347.596z"  horiz-adv-x="1024" />
      
      <glyph glyph-name="shujupingjia1" unicode="&#59313;" d="M121.003 741.632c0 24.704 20.01 44.715 44.672 44.715h692.693c24.661 0 44.672-20.054 44.672-44.715v-299.605a44.672 44.672 0 0 0-89.387 0V696.96H210.347v-625.579h257.066a44.672 44.672 0 1 0 0-89.386H165.675a44.672 44.672 0 0 0-44.672 44.714V741.632zM269.312 572.459c0 24.661 20.01 44.672 44.672 44.672h396.117a44.672 44.672 0 1 0 0-89.344H313.984a44.672 44.672 0 0 0-44.672 44.672z m0-162.603c0 24.661 20.01 44.672 44.672 44.672h213.035a44.672 44.672 0 1 0 0-89.387H313.984a44.672 44.672 0 0 0-44.672 44.715z m0-177.11c0 24.662 20.01 44.673 44.672 44.673h106.539a44.672 44.672 0 0 0 0-89.344H313.984a44.672 44.672 0 0 0-44.672 44.672zM749.227 398.165a64 64 0 0 1-57.174-35.285l-30.848-61.397-67.925-10.326a64 64 0 0 1-35.37-108.8l48.895-48.298-11.178-67.798a64 64 0 0 1 92.586-67.242l61.014 31.573 61.013-31.573a64 64 0 0 1 92.587 67.242l-11.179 67.84 48.853 48.214a64 64 0 0 1-35.328 108.8l-67.925 10.368-30.848 61.44a64 64 0 0 1-57.173 35.242z m0-64L794.88 243.2l100.693-15.36-72.448-71.51 16.512-100.437-90.453 46.763-90.41-46.763 16.554 100.438-72.405 71.552L703.53 243.2l45.653 91.008z"  horiz-adv-x="1024" />
      
      <glyph glyph-name="answerOutlined" unicode="&#59314;" d="M177.323 640a35.84 35.84 0 0 0 35.84 35.84h597.333a35.84 35.84 0 0 0 0-71.68H213.163a35.84 35.84 0 0 0-35.84 35.84z m0-341.333a35.84 35.84 0 0 0 35.84 35.84h597.333a35.84 35.84 0 1 0 0-71.68H213.163a35.84 35.84 0 0 0-35.84 35.84z m0 170.666a35.84 35.84 0 0 0 35.84 35.84h469.333a35.84 35.84 0 0 0 0-71.68H213.163a35.84 35.84 0 0 0-35.84 35.84z m0-341.333a35.84 35.84 0 0 0 35.84 35.84h469.333a35.84 35.84 0 1 0 0-71.68H213.163a35.84 35.84 0 0 0-35.84 35.84z"  horiz-adv-x="1024" />
      
      <glyph glyph-name="renameOutlined1" unicode="&#59315;" d="M256 170.667l19.627 122.325a27.221 27.221 0 0 0 7.594 14.933L725.76 752.043a54.059 54.059 0 0 0 76.63 0l35.029-35.158a54.528 54.528 0 0 0 0-76.928L399.616 200.62a27.05 27.05 0 0 0-14.507-7.552L256 170.667z m-85.333-85.334a42.667 42.667 0 1 1 0-85.333h682.666a42.667 42.667 0 1 1 0 85.333H170.667z"  horiz-adv-x="1024" />
      
      <glyph glyph-name="DislikeOutline1" unicode="&#59316;" d="M573.481 15.155a77.332 77.332 0 0 0-67.584-39.65h-4.26a118.252 118.252 0 0 0-83.435 34.49 134.226 134.226 0 0 0-39.035 83.844l-1.639 19.661a394.035 394.035 0 0 0 8.766 121.651l1.638 7.127H215.327a80.65 80.65 0 0 0-77.701 102.605l95.805 337.92a80.691 80.691 0 0 0 77.66 58.655h463.626a80.691 80.691 0 0 0 80.733-80.65V308.47c0-29.614-16.22-56.73-42.148-70.861m0 0l-118.784-64.553a185.836 185.836 0 0 1-73.564-72.786l-47.432-85.115m-74.957 50.627l43.663 78.356a275.948 275.948 0 0 0 109.24 108.053l113.87 61.931V651.346H318.136l-90.44-318.956h192.43c41.37 0 72.295-38.42 62.874-79.052l-8.888-38.503a303.923 303.923 0 0 1-6.8-93.84l1.639-19.66a44.165 44.165 0 0 1 12.861-27.525 27.98 27.98 0 0 1 16.712-8.028zM320.061 658.227z"  horiz-adv-x="1024" />
      
      <glyph glyph-name="LikeOutline1" unicode="&#59317;" d="M430.336 741.59a80.555 80.555 0 0 0 70.4 41.343h4.437c32.555 0 63.872-12.885 86.955-35.925 23.467-23.381 37.845-54.357 40.619-87.381l1.706-20.438c3.542-42.453 0.47-85.248-9.13-126.72l-1.707-7.424h179.84a84.01 84.01 0 0 0 80.939-106.88l-99.798-352a84.053 84.053 0 0 0-80.896-61.098H220.757a84.053 84.053 0 0 0-84.053 83.968V436.096a83.951 83.951 0 0 0 43.861 73.77m0 0L304.3 577.153a193.579 193.579 0 0 1 76.629 75.819l49.408 88.618m78.08-52.693l-45.483-81.621a287.445 287.445 0 0 0-113.792-112.598l-118.613-64.469v-351.275H696.32l94.208 332.246H590.08a67.2 67.2 0 0 0-65.536 82.346l9.259 40.107a316.587 316.587 0 0 1 7.082 97.75l-1.706 20.437a45.952 45.952 0 0 1-13.398 28.714 29.27 29.27 0 0 1-17.408 8.363z m185.899-617.13z"  horiz-adv-x="1024" />
      
      <glyph glyph-name="MarkdownOutlined" unicode="&#59318;" d="M519.68 269.632h2.432L569.984 425.6h95.744v-276.928h-59.84v217.92h-2.368L550.08 200.96h-60.736l-52.672 165.632h-2.368v-217.92h-59.072V425.6h98.56l45.888-155.968zM645.12 809.856c7.936-1.536 15.36-5.248 21.312-10.88l190.72-181.44c8.448-8 13.248-19.2 13.248-30.848V0a42.688 42.688 0 0 0-42.688-42.688h-614.4A42.688 42.688 0 0 0 170.624 0V768c0 23.552 19.136 42.688 42.688 42.688h423.744l8.064-0.832zM256 42.688h529.088V512H597.312a42.688 42.688 0 0 0-42.688 42.688V725.312H256v-682.624z m384 554.624h114.624L640 706.304v-108.992z"  horiz-adv-x="1024" />
      
      <glyph glyph-name="BrokenOutlined1" unicode="&#59319;" d="M213.3 256a42.65 42.65 0 1 0 0-85.3H128a42.65 42.65 0 1 0 0 85.3h85.3z m128.05-128c23.552 0 42.65-19.098 42.65-42.7V0a42.65 42.65 0 0 0-85.35 0v85.3c0 23.551 19.097 42.7 42.7 42.7z m232.807 496.64a42.65 42.65 0 0 0-60.365-60.416l-120.678 120.78a42.7 42.7 0 0 1-60.314 0L212.122 564.276a42.7 42.7 0 0 1 0-60.365L332.8 383.232l2.918-3.226a42.7 42.7 0 0 0-60.006-60.057l-3.277 2.97-120.678 120.678a128 128 0 0 0 0 180.992l120.678 120.678a128 128 0 0 0 181.043 0L574.157 624.64z m301.67-301.722a128 128 0 0 0 0-181.043L755.15 21.197a128 128 0 0 0-180.992 0L453.478 141.875l-2.97 3.277a42.7 42.7 0 0 0 60.058 60.006l3.226-2.918L634.47 81.562a42.65 42.65 0 0 1 60.365 0L815.514 202.24a42.65 42.65 0 0 1 0 60.314L694.835 383.232l-2.97 3.277a42.7 42.7 0 0 0 60.058 60.006l3.226-2.918 120.678-120.679zM664.115 294.042a42.65 42.65 0 0 0-60.313-60.365L362.445 475.034a42.65 42.65 0 0 0 60.313 60.364l241.357-241.356zM682.65 810.65c23.552 0 42.65-19.098 42.65-42.65v-85.3a42.65 42.65 0 1 0-85.3 0V768c0 23.552 19.098 42.65 42.65 42.65zM896 597.35a42.65 42.65 0 0 0 0-85.35h-85.3a42.65 42.65 0 1 0 0 85.35H896z"  horiz-adv-x="1024" />
      
      <glyph glyph-name="shujuguanli1" unicode="&#59320;" d="M213.333 256.085a42.667 42.667 0 0 1-42.666-42.666v-128a42.667 42.667 0 0 1 42.666-42.667h597.334a42.667 42.667 0 0 1 42.666 42.667v128a42.667 42.667 0 0 1-42.666 42.666H213.333z m-128-42.666a128 128 0 0 0 128 128h597.334a128 128 0 0 0 128-128v-128a128 128 0 0 0-128-128H213.333a128 128 0 0 0-128 128v128z m0 448a128 128 0 0 0 128 128h213.334a42.667 42.667 0 1 0 0-85.334H213.333a42.667 42.667 0 0 1-42.666-42.666v-128a42.667 42.667 0 0 1 42.666-42.667h213.334a42.667 42.667 0 1 0 0-85.333H213.333a128 128 0 0 0-128 128v128z m639.83 63.914a128 128 0 1 1 0-256 128 128 0 0 1 0 256z m-213.334-128a213.333 213.333 0 1 0 426.667 0 213.333 213.333 0 0 0-426.667 0zM725.504 533.248a64 64 0 1 1 0 128 64 64 0 0 1 0-128z"  horiz-adv-x="1024" />
      
      <glyph glyph-name="generatingOutlined" unicode="&#59308;" d="M511.898 496.64a112.64 112.64 0 1 0 0-225.28 112.64 112.64 0 0 0 0 225.28z m0-61.44a51.2 51.2 0 1 1 0.05-102.451 51.2 51.2 0 0 1-0.05 102.451zM511.898 824.32a112.64 112.64 0 0 0 112.64-112.64c0-9.472-1.332-18.688-3.584-27.494l98.201-56.576a112.64 112.64 0 0 0 192.205-79.77 112.589 112.589 0 0 0-84.838-109.056v-109.568a112.589 112.589 0 1 0-107.418-188.723l-98.1-56.627c2.202-8.858 3.585-18.074 3.585-27.648a112.64 112.64 0 0 0-225.28 0c0 9.523 1.28 18.739 3.481 27.596l-97.996 56.525a112.64 112.64 0 1 0-107.316 188.826V438.886a112.538 112.538 0 1 0 107.316 188.877l97.996 56.525A112.64 112.64 0 0 0 511.846 824.32z m0-716.8a51.2 51.2 0 1 1 0.05-102.502 51.2 51.2 0 0 1-0.05 102.502zM334.797 574.157a112.64 112.64 0 0 0 3.277-26.266c0-50.534-33.28-93.337-79.156-107.571v-112.64a112.64 112.64 0 0 0 75.93-133.632l98.662-56.934a112.18 112.18 0 0 0 156.724 0l98.97 57.19a112.691 112.691 0 0 0 75.878 133.478v112.64a112.691 112.691 0 0 0-75.879 133.581l-98.816 57.037a112.128 112.128 0 0 0-156.979 0.051l-98.611-56.934zM225.382 271.36a51.2 51.2 0 1 1 0.103-102.502 51.2 51.2 0 0 1-0.103 102.502z m573.338 0a51.2 51.2 0 1 1 0.051-102.502 51.2 51.2 0 0 1-0.051 102.502zM225.382 599.04a51.2 51.2 0 1 1 0.103-102.4 51.2 51.2 0 0 1-0.103 102.4z m573.338 0a51.2 51.2 0 1 1 0-102.4 51.2 51.2 0 0 1 0 102.4zM511.898 762.88a51.2 51.2 0 1 1 0.05-102.502 51.2 51.2 0 0 1-0.05 102.502z"  horiz-adv-x="1024" />
      
      <glyph glyph-name="earthfiled" unicode="&#59309;" d="M501.76 459.11l0.154 0.205a29.696 29.696 0 0 0-0.41 2.202l0.256-2.407z m171.366-187.392h-0.102 0.102z m4.404-0.512c-1.024 0.103-3.43-0.204-4.404 0.512-0.563-2.048 0.308-2.764 4.404-0.512zM510.618 830.003C264.14 830.003 64.41 629.965 64.41 383.181s199.73-446.823 446.208-446.823c246.425 0 446.156 200.039 446.156 446.823S757.044 830.003 510.618 830.003z m284.979-174.592c-15.36-0.46-26.112-0.512-38.4-9.011-5.018-3.43-8.397-7.987-14.695-9.728-5.632-1.638-11.776-0.256-17.408-2.15-20.275-6.912-17.05-50.381-43.776-43.828-12.544 3.072-21.401 17.92-27.648 27.648-5.632 8.55-15.718 15.616-8.908 26.266-3.072-0.82-6.452 0.102-9.524-0.512 4.301 9.472 18.637 8.653 20.992 13.414 5.99 12.084-16.332 13.312-22.63 15.002 7.578 8.14 11.469-2.714 18.944-0.87 7.27 1.792-3.789 11.264-8.14 12.39-1.537 0.358-26.983-7.066-12.289 6.144l-54.477 34.816c-3.072-12.902 24.167-20.275 33.076-24.832-1.383-5.325-9.677-13.056-16.026-10.752-5.94 2.1-3.533 12.032-12.544 11.008-6.451-15.002 13.62-10.598 15.462-19.814 2.15-10.445-7.577-5.99-11.264-5.837-0.921 0.051-7.884 7.27-8.243 1.792-0.46-6.451 11.06-3.943 11.879-10.496-13.415-0.512-20.276 4.352-31.232 11.622-12.8 8.448-19.303 7.68-34.97 7.68 4.71 1.946 11.11 3.38 15.155 6.503 2.15 1.69 10.752 10.035 11.264 11.878 2.458 8.038-0.102 7.424-7.782 12.698-6.81 4.71-15.104 13.107-23.399 14.745-29.952 5.99-9.216-27.136-32-31.693h1.178-1.331 0.153c-5.222 0.205-15.104 1.485-18.483-1.28-2.406-1.996-2.611-9.83-5.273-12.697-4.813-5.12-11.879-6.144-17.562-9.728-5.58-3.584-17.818-12.8-21.043-19.047-12.032-22.988 27.033-30.105 41.881-36.864 6.656-3.02 26.215-7.168 29.901-12.236 4.864-6.81-4.25-13.21 5.99-17.972 3.226-1.536 9.933-1.843 12.8 1.332 4.506 5.12-1.894 6.297-2.969 12.288-2.15 11.417 1.331 6.86 7.117 11.11 11.725 8.653 9.062 9.216 4.864 22.989-1.997 6.4-9.37 24.371-2.867 29.081 8.448 6.196 26.521-3.328 33.024-4.096 7.577-0.972 11.878-11.468 15.974-15.718 2.714-2.867 7.629-8.909 12.39-8.243 7.578 1.024 4.404 7.68 8.807 10.752 11.776 8.192 14.95-2.97 19.61-14.08 4.454-10.496 8.652-14.336 16.486-21.095 3.686-3.072 19.712-14.233 18.176-21.094-1.024-4.608-19.303-11.674-24.218-13.21-17.92-5.683-51.456 9.268-55.091-19.148 6.963 2.56 26.726 18.739 32.666 11.11 2.662-3.482-2.15-8.55-1.024-11.98 3.379-10.394 11.366-6.76 19.712-5.12a14.49 14.49 0 0 0-1.792-0.922c11.417 5.888 10.24 4.608 15.462 14.182 1.74 3.072 4.25 10.65 6.656 12.902 8.346 7.63 9.626 2.356 14.746-3.584 1.33-1.536 14.028-19.814 9.523-18.944-14.797 2.97-28.98 2.56-41.216-5.478-7.066-4.71-13.773-11.008-22.221-14.131-2.048-0.717-16.998-2.15-15.206 0.41 2.56 3.737 11.468 6.195 15.001 10.24-9.728 3.993-17.869-4.865-25.497-10.036-8.141-3.84-9.984-11.008-16.896-17.254-3.072-2.765-8.704-3.226-11.674-6.81-2.867-3.533-3.226-9.011-5.99-12.288-1.895-2.355-6.759-0.973-8.756-4.454-2.56-4.608 2.356-8.858 1.28-12.135-2.048-5.99-13.363-11.059-17.766-15.36a82.432 82.432 0 0 1 1.74 1.69c-4.351-4.608-9.932-7.987-13.311-13.312 1.536-7.526 6.502-25.446 5.12-29.594-4.608-13.568-13.415 7.373-16.999 12.8-12.339 18.637-37.017 6.144-53.862 4.608-21.555-1.945-42.65-29.952-29.389-52.736 6.4-10.854 17.152-15.104 29.44-12.544 10.957 2.202 14.234 17.562 24.576 17.87 18.944 0.511 0.41-18.638-1.229-25.6-1.536-6.554 2.356-7.169 9.063-8.705 4.915-1.229 11.878 2.048 16.179-0.768 2.662-1.74 2.56-11.52 6.246-8.448-7.27-6.041-5.58-20.377 1.895-25.6 8.294-5.734 18.073-0.41 26.726-2.611 16.384-4.198 8.602 1.229 22.989 9.933 9.728 5.888 11.264-1.075 17.92-1.127 4.506 0 7.424 6.503 14.95 4.608 6.144-1.536 8.602-6.297 15.924-7.424 3.072-0.41 6.144 1.178 9.01 0.82 13.62-1.536 24.065-10.24 34.766-18.074 8.806-6.451 14.643-5.12 24.985-8.09 7.527-2.15 21.402-13.107 20.685-22.681-0.102-1.741-6.656-10.343-7.834-14.234 1.946-1.331 15.36 1.69 19.303 1.946-1.28-1.536-10.445-7.936-10.445-4.506 0-1.74 6.451-5.325 8.038-6.451 4.762 15.462 12.596 5.53 22.016 1.69 7.988-3.277 17.87-3.43 26.368-5.479 7.27-1.74 23.245-6.656 28.672-12.544 6.452-7.168 1.946-18.79-2.816-25.856-6.246-9.318-15.718-12.902-19.61-23.859-3.071-8.704-0.767-17.46-2.56-27.136-2.354-13.005-4.249-8.448-12.646-16.384-7.065-6.656-0.102-5.53-9.728-9.78-9.625-4.3-18.124-3.071-24.832-13.618a17.51 17.51 0 0 1 0.717 2.048c-2.816-3.994-4.25-12.032-5.58-14.695-3.38-6.81-7.988-11.059-13.313-16.691-2.048-2.15-20.838-27.802-21.913-25.754-1.383 2.663-16.18-2.713-16.896 1.127 0.614-3.226-0.103-2.15 3.584-3.994-3.43-21.094-12.34-24.217-33.024-24.422 1.792-10.138-7.475-8.141-11.776-13.568-2.56-3.226-3.738-12.135-5.479-16.282-1.126-2.56-9.216-12.953-9.216-15.001 0-1.895 2.765-4.66 5.274-7.322a392.192 392.192 0 0 0-44.544-6.144c2.867 3.584 3.533 6.707-5.478 7.168 2.406 6.502 8.09 10.24 10.444 16.64 1.178 2.97 0.205 4.147 1.178 7.168 3.277 10.24 1.894 6.349 0 14.336-4.352 18.637 1.536 23.706 6.656 40.806 5.171 17.562 4.71 40.295 8.038 59.188 1.588 9.062 4.199 27.904 1.024 36.454-3.481 9.626-19.046 17.203-26.163 23.706-10.086 9.216-15.462 19.097-22.937 30.515-3.79 5.734-8.141 11.417-11.11 17.715-6.35 13.414 0 5.427 1.074 13.312 1.024 7.68-0.921 14.54 2.1 22.528 3.379 8.909 11.776 14.438 14.54 23.398 2.458 7.988 0.564 18.023-7.628 20.685-4.557 1.536-9.575-1.945-14.132-1.177-6.4 1.024-13.619 5.785-18.636 9.625-7.015 5.325-9.626 14.029-17.101 19.098-6.247 4.198-10.65 1.69-17.357 3.635-6.963 2.048-11.264 10.65-16.896 13.363-8.397 4.045-13.158-1.74-22.016-0.563-7.578 0.973-19.149 9.37-26.214 12.544-14.336 6.451-23.092 13.568-28.877 28.16-4.915 12.544-12.083 18.38-20.48 28.774-8.602 10.599-11.264 19.61-24.474 22.426-1.536 0.307 3.226-11.11 3.738-12.032 4.71-8.704 11.776-16.742 17.459-24.883 8.397-11.981 4.813-14.234-3.686-2.611-9.728 13.26-21.095 26.419-29.543 40.448-3.174 5.376-2.56 8.806-7.833 13.824-5.12 4.864-11.776 7.27-16.896 11.878-18.432 16.64-21.812 38.81-19.712 62.464 0.665 7.782 3.481 13.926 2.252 21.35a29.542 29.542 0 0 1-9.216 15.821l-5.324 8.448c-4.199 6.963-7.476 13.824-14.132 19.559a338.074 338.074 0 0 1-23.04 17.408 396.902 396.902 0 0 0 159.284 119.296c0.512-3.175 1.843-6.298 3.89-9.319 5.12-7.68 10.087-7.065 20.122-9.216-1.024-11.673-14.694-11.776-23.961-10.496-11.06 1.536-22.63 5.171-32.256-4.505 5.325-3.175 19.814-15.565 17.92-2.612 10.547 0.512 20.787 0.82 31.13-0.46 4.095-0.512 18.022-5.12 21.76-3.072 1.587 0.921 3.276 8.704 4.966 11.161-2.97 0-6.144 1.434-9.063 1.178 6.861 8.755 13.67 1.894 22.375-2.15-9.575-5.837-3.891-19.866 5.478-8.449 7.731 9.319-1.843 16.128-11.673 21.556 9.881 12.39 15.974 13.465 25.241-0.512 1.536 8.652 8.5 5.222 15.719 4.608v2.15c-3.175-0.051-6.554 1.792-9.728 1.434 7.372 11.776 2.662 14.49 13.21 18.38 8.396 3.072 32.409 0.205 35.327 8.09-16.742-3.277-37.017-4.045-52.224-11.674-6.502-3.276-14.233-13.721-20.787-6.963-6.656 6.963 4.762 18.125 10.65 21.504h-1.383a394.445 394.445 0 0 0 135.987 4.967c-6.092-3.226-1.536-5.376-5.99-8.653-8.5-6.247-23.552-11.418-33.587-15.36 12.8 0 43.827-12.032 49.766 5.939l-12.39 1.894c7.68 5.12 16.384 9.268 25.395 12.288a394.598 394.598 0 0 0 209.254-115.712h-1.177z m72.192-156.825c0.768 1.536 2.457 2.048 3.174 3.379 1.536 2.713 1.178 4.557 3.021 6.912 1.946 2.509 4.608 3.123 6.81 5.12a7.936 7.936 0 0 1 1.792 2.253 399.11 399.11 0 0 0 15.616-56.935c-0.103-0.153-0.154-0.358-0.308-0.512a32.922 32.922 0 0 0-8.499-1.69c-4.557-0.153-7.885 2.817-11.161 5.633a52.48 52.48 0 0 0-9.524 10.496c-2.56 3.993-1.024 8.038-0.819 12.595 0.154 3.84-1.69 9.267-0.102 12.749z m5.12-204.903a122.06 122.06 0 0 0-22.17 24.269c-5.785 9.216-2.201 18.688-1.792 29.184 0.359 8.909-3.942 21.504-0.205 29.491 1.741 3.687 5.684 4.864 7.322 7.834 3.482 6.349 2.714 10.65 6.963 16.077 4.557 5.836 10.701 7.27 15.77 11.827 5.325 4.813 5.171 8.601 8.55 14.745 2.458 4.506 8.243 12.032 13.722 15.924a397.005 397.005 0 0 0-8.807-161.741c-7.372 1.945-13.465 7.27-19.353 12.39z"  horiz-adv-x="1024" />
      
      </font>
</defs>
</svg>
